<svg xmlns="http://www.w3.org/2000/svg" viewBox="0 0 3700.92 2775.69"><defs><style>.cls-1{fill:#febc59;}.cls-2{fill:#fefdfb;}</style></defs><g id="Layer_2" data-name="Layer 2"><g id="Layer_1-2" data-name="Layer 1"><rect class="cls-1" x="925.23" width="925.23" height="925.23"/><path class="cls-2" d="M1521.22,246.64c-.31,28.38-10.83,53.22-27.17,75.85-18.81,26.05-43,46.26-70,63.28a145.09,145.09,0,0,1-17.09,9.81c-13.41,6.12-27.19,6.79-40.08-.09-39.39-21-73.19-48.57-96.43-87.42-6.87-11.5-6.12-23.59,1.48-34.8,7.87-11.59,19.52-14.84,32.71-13.71,10.2.87,18.8,5.58,26.37,12.27,6.59,5.82,14.43,8.68,23,10.05,12,1.91,22.52-1.79,32.5-7.94,9.4-5.79,19.26-10.17,30.62-10.05,6.67.07,10.89,3.44,11,9,.13,5.27-3.91,9.36-10.1,9.6-8,.32-15.08,3-21.81,7.34C1370.68,306.13,1343,304.73,1319,286c-6.18-4.83-12.56-8.45-20.79-7.76-11.43,1-17,11.48-11.18,21.36,12.7,21.47,30,38.8,49.4,54.1a315.6,315.6,0,0,0,33,22.45c11.78,7.07,23.42,6.89,35.25-.29,25-15.17,48.28-32.38,67.09-55,15.51-18.68,26.87-39.4,30.36-63.82a80.29,80.29,0,0,0-3.58-37.9c-10.29-29.84-44-43.76-74.17-30.79a135.6,135.6,0,0,0-15.19,7.86c-15,8.86-30.17,8.94-45.17-.16-7.58-4.6-15.37-8.77-24-10.82-32.94-7.78-61.91,11.41-67.76,44.76-.33,1.88-.53,3.78-1,5.63-1.24,5.5-5.33,8.5-10.5,7.79a9.2,9.2,0,0,1-7.89-10.46c2.82-24.13,13.09-44,34.3-57,27.78-17,55.36-13.79,82.57,1.73,1.5.86,3,1.75,4.46,2.65,8.7,5.27,17.28,5.08,25.9-.31,16.49-10.32,34.15-17.22,53.95-15,38.82,4.43,64.65,32.51,67.12,72.27C1521.39,240.4,1521.22,243.53,1521.22,246.64Z"/><path class="cls-2" d="M1470.71,548.64c-6.92,0-13.84,0-20.76,0-6.21,0-10.3-3.75-10.28-9.16,0-5.06,4.11-9.08,10-9.16,12.45-.17,24.91,0,37.37-.07,7.31,0,9-1.28,9.68-8.43,2-19.45,10.91-34.67,27.09-45.68,9.58-6.53,19-13.31,28.58-19.8a45.13,45.13,0,0,0,18.21-23.8c10.53-31.37,15.62-63.74,18.27-96.58.57-7-3.28-12.07-9.31-12.76S1569,326.54,1568,333.72c-1.69,12.33-3.47,24.65-5.19,37-1.88,13.43-9.7,23.05-20,30.95a9,9,0,0,1-12.24-1.33,9.17,9.17,0,0,1-.1-12.32,37.52,37.52,0,0,1,4.27-3.76c5.5-4.64,9-10.33,9.91-17.62,1.54-12.18,3.44-24.31,5-36.5,1.9-15.25,15-26.27,30.74-25.57a28.6,28.6,0,0,1,27.07,28.26c0,13.85-1.84,27.59-4,41.28-3.54,22.94-8.47,45.53-16.34,67.43-4.49,12.51-12.42,22.18-23.35,29.61-9.72,6.61-19.24,13.53-29,20.08-11.88,8-18.4,18.95-19.54,33.15-.61,7.61-3.49,14.07-9.47,18.93a22.21,22.21,0,0,1-14.78,5.39C1484.21,548.54,1477.46,548.64,1470.71,548.64Z"/><path class="cls-2" d="M1302.89,548.64c-6.23,0-12.46,0-18.69,0-13.36,0-22.84-7.54-25.12-20.74-2.17-12.49-7-23.48-15.9-32.57-5.46-5.61-12.23-9.6-18.56-14.12-5.2-3.73-10.51-7.31-15.84-10.86-12.73-8.48-20-20.73-24.5-35a401.34,401.34,0,0,1-18-98.77c-.92-17.06,10.21-30.72,25.81-32,16.94-1.38,30.16,10,32.25,27.46,1.36,11.33,3.14,22.62,4.53,33.94a26.8,26.8,0,0,0,10.37,18.48,32.13,32.13,0,0,1,3.5,3.08,9.66,9.66,0,0,1,.36,12.79,9.16,9.16,0,0,1-12.27,1.21c-10.35-7.65-18-17.17-19.86-30.42q-2.6-18.5-5.23-37c-1.06-7.51-5.6-11.75-11.79-11-5.9.76-9.44,5-9.07,11.78a387.33,387.33,0,0,0,7.61,58.08,317,317,0,0,0,11.09,41,42,42,0,0,0,16,21.09q12.58,8.73,25.15,17.47c17.11,11.94,28,27.93,31.71,48.63,1.39,7.76,2.83,8.93,10.57,8.94,12.29,0,24.58,0,36.86,0,4.63,0,8,2.28,9.52,6.67,1.39,3.91-.07,7.12-3,9.74a8.82,8.82,0,0,1-6.28,2C1317.08,548.6,1310,548.63,1302.89,548.64Z"/><path class="cls-2" d="M1353.71,510.9c0-7.1-.15-14.19,0-21.28.33-12.51-3.75-23.26-11.59-33-14.88-18.47-31.43-35-52.08-47-6.62-3.86-13.24-3.06-17.31,2.06-4.35,5.49-3.65,11.94,2,17.6a116.35,116.35,0,0,0,9.35,9c10.73,8.57,16.73,19.56,18,33.23.3,3.27,1.07,6.5,1.24,9.77a9.49,9.49,0,0,1-8.32,10.17c-4.57.52-9-2.78-10-7.89-.93-4.57-1.54-9.21-2.12-13.84a20.89,20.89,0,0,0-6.56-13.17q-7.39-6.91-14.66-13.95c-11.79-11.45-13.64-28.42-4.52-41,9.64-13.32,26.19-17,41.05-8.84a160.11,160.11,0,0,1,28.67,20.44A249.68,249.68,0,0,1,1357,445.25c10,12.48,15.38,26.61,15.62,42.53.25,16.61.12,33.22,0,49.83,0,6.45-3.07,10.4-8,11-6.34.73-10.72-3.19-10.86-10.18-.18-9.16,0-18.33,0-27.5Z"/><path class="cls-2" d="M1401.39,510.71c0-10-.65-20.11.16-30.07,1.14-14.22,7.69-26.37,16.59-37.37,14.69-18.15,31.31-34.13,51-46.86,10.48-6.8,21.31-10.76,33.73-5.67a30.85,30.85,0,0,1,10.27,50.63c-4.75,4.79-9.56,9.53-14.59,14a22.72,22.72,0,0,0-7.86,15.26,124.38,124.38,0,0,1-1.81,12.32c-1.16,5.72-5.76,9.21-10.66,8.4-5.34-.87-8.61-5.64-7.78-11.55.76-5.48,1.47-11,2.57-16.39a36,36,0,0,1,10.12-18.95c5.19-5.08,10.57-10,15.72-15.09,5.88-5.86,6.5-11.93,2.06-17.59-4.12-5.25-10.5-6.18-17.23-2.23-22.77,13.36-41.08,31.51-56.34,52.86-5.52,7.73-7.47,16.66-7.52,26-.09,16.26,0,32.52,0,48.79,0,7.42-3.14,11.24-9.09,11.36-6.27.12-9.53-3.73-9.57-11.42,0-8.83,0-17.65,0-26.47Z"/><path class="cls-2" d="M1461.76,273a9.52,9.52,0,0,1-9.14,9.44,9.37,9.37,0,0,1-9.14-9.37,9.15,9.15,0,0,1,9.06-9.38A9.32,9.32,0,0,1,1461.76,273Z"/><path class="cls-2" d="M1026.1,685l-26.93-2.89v35.83h-24V626.75h24v31.38L1026,660.9l-.24-33.79,24-.48.6,92.22-24-.12Z"/><path class="cls-2" d="M1101.2,718l-.13-5.65a25,25,0,0,1-8,4.45,29.7,29.7,0,0,1-9.86,1.68,26.31,26.31,0,0,1-14.67-4.39,31.49,31.49,0,0,1-10.7-11.84,34.31,34.31,0,0,1-4-16.35,33.75,33.75,0,0,1,4.09-16.47,30.41,30.41,0,0,1,27-16,24.88,24.88,0,0,1,8.84,1.57,16.77,16.77,0,0,1,6.67,4.33v-5.17h20L1123.2,718Zm-7.94-21.28a13.76,13.76,0,0,0,4.57-5.11,14.34,14.34,0,0,0,1.68-6.79,11.41,11.41,0,0,0-3.18-8.24,10.67,10.67,0,0,0-8-3.31,13.13,13.13,0,0,0-9.26,3.73,11.82,11.82,0,0,0-4,8.9,12,12,0,0,0,1.75,6.13,13.79,13.79,0,0,0,4.57,4.81,10.35,10.35,0,0,0,11.84-.12Z"/><path class="cls-2" d="M1185.84,658.79q5.16,6,4.93,16.78l-.72,42.44h-22l.12-28.25q0-8.78-2.34-12.51a7.66,7.66,0,0,0-6.91-3.73,10,10,0,0,0-6.44,2.17c-1.8,1.44-2.9,3.89-3.3,7.33l.12,35h-21.77V653.93l21.53-.37v6.14a42.1,42.1,0,0,1,10.7-4.93,40.1,40.1,0,0,1,12-1.93Q1180.67,652.84,1185.84,658.79Z"/><path class="cls-2" d="M1263.94,623v95.22h-23.45v-6.73a29.28,29.28,0,0,1-9.37,5.29,33.46,33.46,0,0,1-11.43,2,21.85,21.85,0,0,1-13.22-4.51,31.13,31.13,0,0,1-9.74-12.2,38.67,38.67,0,0,1-3.61-16.59,36.67,36.67,0,0,1,13.53-28.08,21,21,0,0,1,12.68-4.87q12.63-.36,20.8,5.77l-.24-37.27Zm-30.42,73.52a14.72,14.72,0,0,0,4.87-4.93,11.83,11.83,0,0,0-2-15.15,12.65,12.65,0,0,0-9.08-3.79,12,12,0,0,0-8.72,3.79,12.31,12.31,0,0,0-2,15.21,13.93,13.93,0,0,0,4.69,4.87,11.2,11.2,0,0,0,6.07,1.86A11.71,11.71,0,0,0,1233.52,696.55Z"/><path class="cls-2" d="M1313.81,676.05a56.68,56.68,0,0,0-9.62-4.39,25.8,25.8,0,0,0-8-1.38,14.22,14.22,0,0,0-6,1.08c-1.57.72-2.35,1.64-2.35,2.76q0,3,8.42,3,12.26,0,19.12,4.81a15.43,15.43,0,0,1,6.85,13.35,19.73,19.73,0,0,1-4,12,28.32,28.32,0,0,1-10.82,8.72,34.05,34.05,0,0,1-14.85,3.24,39.77,39.77,0,0,1-15.15-2.94,29.15,29.15,0,0,1-11.42-7.88l12.14-13.71a21,21,0,0,0,6.62,3.91,21.61,21.61,0,0,0,7.57,1.39,14.31,14.31,0,0,0,6.31-1.27c1.73-.84,2.59-1.86,2.59-3.06a2.13,2.13,0,0,0-1.69-2,18.62,18.62,0,0,0-5.65-.6,14.27,14.27,0,0,1-2.16.12,24.84,24.84,0,0,1-11.36-2.7,23.2,23.2,0,0,1-8.6-7.28,16.38,16.38,0,0,1,.48-20.2,26.83,26.83,0,0,1,10-7.75,30.59,30.59,0,0,1,13.23-3,37.93,37.93,0,0,1,14,2.77,45,45,0,0,1,12.81,7.69Z"/><path class="cls-2" d="M1374.29,713.8A34.3,34.3,0,0,1,1362,701.24a33.27,33.27,0,0,1-4.5-16.77,28.75,28.75,0,0,1,5.11-17.08,33.15,33.15,0,0,1,12.86-10.94,36,36,0,0,1,15.69-3.73,39.44,39.44,0,0,1,18,3.91,28.36,28.36,0,0,1,11.9,11.12,32.86,32.86,0,0,1,4.21,16.84,34.1,34.1,0,0,1-4.45,17.25,32.41,32.41,0,0,1-12.2,12.2,33.81,33.81,0,0,1-17.14,4.45A32.75,32.75,0,0,1,1374.29,713.8Zm26.27-19q3.3-3.24,3.31-8.89a13.77,13.77,0,0,0-3.13-9.14q-3.13-3.72-9.26-3.73a12,12,0,0,0-9,3.61,12.2,12.2,0,0,0-3.54,8.9,11.84,11.84,0,0,0,3.72,9,13.23,13.23,0,0,0,9.5,3.55A11.43,11.43,0,0,0,1400.56,694.8Z"/><path class="cls-2" d="M1463.62,645.45a20.17,20.17,0,0,0-2,8.24l18.51.24-1.32,21.64-16.35-.24,1.8,42.44h-24.65l-.48-42.8-12.38-.12-2.29-21.65,14.43.24-.12-8.29q-.48-12.15,6.8-18.16t19.41-6a36.22,36.22,0,0,1,11.61,1.8,24.6,24.6,0,0,1,9.07,5.3l-.84,17.07q-.36-.24-3.85-2.23a17,17,0,0,0-8.53-2,13.32,13.32,0,0,0-4.21.6A7.91,7.91,0,0,0,1463.62,645.45Z"/><path class="cls-2" d="M1571.89,685,1545,682.06v35.83h-24V626.75h24v31.38l26.81,2.77-.24-33.79,24-.48.6,92.22-24-.12Z"/><path class="cls-2" d="M1616.45,713.8a34.3,34.3,0,0,1-12.33-12.56,33.28,33.28,0,0,1-4.51-16.77,28.82,28.82,0,0,1,5.11-17.08,33.25,33.25,0,0,1,12.87-10.94,36,36,0,0,1,15.69-3.73,39.4,39.4,0,0,1,18,3.91,28.33,28.33,0,0,1,11.91,11.12,32.86,32.86,0,0,1,4.21,16.84,34.1,34.1,0,0,1-4.45,17.25,32.43,32.43,0,0,1-12.21,12.2,33.77,33.77,0,0,1-17.13,4.45A32.75,32.75,0,0,1,1616.45,713.8Zm26.27-19q3.3-3.24,3.3-8.89a13.77,13.77,0,0,0-3.12-9.14q-3.14-3.72-9.26-3.73a12,12,0,0,0-9,3.61,12.2,12.2,0,0,0-3.54,8.9,11.84,11.84,0,0,0,3.72,9,13.21,13.21,0,0,0,9.5,3.55A11.43,11.43,0,0,0,1642.72,694.8Z"/><path class="cls-2" d="M1728.94,661.56q6.6,8.48,6.61,21.58a41.54,41.54,0,0,1-3.43,17,29.34,29.34,0,0,1-9.68,12.26,24.24,24.24,0,0,1-14.54,4.51q-8.91,0-14.79-3.25l1.08,33.07h-23.81V653.81l19.6.12.84,6.37a34.66,34.66,0,0,1,9.86-5.65,27.09,27.09,0,0,1,10.34-2Q1722.32,653.08,1728.94,661.56Zm-15.69,32.64c2-2.08,2.94-4.93,2.94-8.53a12.63,12.63,0,0,0-3.25-9.08,11.22,11.22,0,0,0-8.53-3.43,12,12,0,0,0-8.6,3.25,10.8,10.8,0,0,0-3.43,8.18,12.07,12.07,0,0,0,3.91,8.95,12.77,12.77,0,0,0,9.2,3.79A10.16,10.16,0,0,0,1713.25,694.2Z"/><path class="cls-2" d="M1792.27,662.22q8.31,8.78,8.3,23.93c0,1.68,0,3-.12,3.85l-42.56.48a17.52,17.52,0,0,0,4,6.55,9.2,9.2,0,0,0,6.07,2.82q9.62.74,13.94-5.65l17.2,4.93a23.09,23.09,0,0,1-6,10.16,31.58,31.58,0,0,1-10.64,7,33.69,33.69,0,0,1-12.81,2.52,18.14,18.14,0,0,1-2.4-.12,30.62,30.62,0,0,1-15.33-5.41,34.75,34.75,0,0,1-11.19-12.62,35.91,35.91,0,0,1-4.14-17.08,23.87,23.87,0,0,1,.12-2.76,27,27,0,0,1,4.87-14.19,29.73,29.73,0,0,1,11.54-9.74,35.67,35.67,0,0,1,15.81-3.49Q1784,653.44,1792.27,662.22ZM1758,675.81l20.32.12a8.12,8.12,0,0,0-2.83-5.41,9.53,9.53,0,0,0-5.35-2.17Q1761.26,667.63,1758,675.81Z"/><path class="cls-2" d="M1248.57,838.3l-1.51-32.43-6.94,32.43h-14.44l-8-30.33-.37,29.53-14.44.08V782.84l10.4.65,11,.36,8.09,29,5.49-29.46h22.6l2.53,54.37Z"/><path class="cls-2" d="M1315.16,826.09l-18.34-.07-4.62,11.48-14.45-5.92,23.69-48.31,14.44.15,17,51.27-14.44,3.46Zm-3.9-14.44-3.46-13-5.2,12.93Z"/><path class="cls-2" d="M1381.88,823.85V838.3h-33.94v-55h14.44v40.58Z"/><path class="cls-2" d="M1434.18,826.09l-18.34-.07-4.62,11.48-14.44-5.92,23.68-48.31,14.45.15,17,51.27-14.45,3.46Zm-3.9-14.44-3.46-13-5.2,12.93Z"/><path class="cls-2" d="M1543.68,789.7l-18.85,49.61h-17.47l-5.78-26.94-5.85,25.49h-18.12L1462.3,788l16.1-5.06,8.67,31,8.45-29.75h13.28l6.86,32.21,11.2-34.88Z"/><path class="cls-2" d="M1558.82,783.27h14l-.44,54.88h-14Z"/><rect class="cls-1" width="925.23" height="925.23"/><polygon class="cls-1" points="925.23 925.23 0 925.23 0 1850.46 925.23 1850.46 1850.46 1850.46 1850.46 925.23 925.23 925.23"/><path class="cls-2" d="M721.83,250.52c-.61,54.73-20.9,102.66-52.41,146.29-36.29,50.24-83,89.23-135.08,122.06-10.71,6.75-21.35,13.63-33,18.92-25.87,11.8-52.44,13.09-77.32-.18-76-40.54-141.15-93.68-186-168.61-13.27-22.18-11.81-45.49,2.85-67.11,15.17-22.36,37.64-28.62,63.09-26.45,19.66,1.67,36.25,10.77,50.86,23.67,12.7,11.22,27.82,16.74,44.28,19.38,23.08,3.7,43.44-3.45,62.69-15.3C480,292,499,283.57,520.92,283.8c12.86.13,21,6.64,21.26,17.39.24,10.16-7.55,18.05-19.48,18.52-15.52.61-29.09,5.87-42.07,14.15-49.17,31.4-102.55,28.71-148.87-7.46-11.93-9.31-24.24-16.3-40.1-15-22.05,1.85-32.85,22.15-21.58,41.21,24.5,41.4,57.78,74.82,95.3,104.34a608.3,608.3,0,0,0,63.69,43.3c22.72,13.62,45.17,13.29,68-.57,48.2-29.26,93.11-62.45,129.39-106.14,29.92-36,51.82-76,58.55-123.11a154.8,154.8,0,0,0-6.9-73.09C658.26,139.81,593.18,113,535.06,138a258.63,258.63,0,0,0-29.3,15.15c-29,17.1-58.19,17.25-87.12-.31C404,144,389,135.92,372.29,132c-63.54-15-119.4,22-130.69,86.33-.63,3.62-1,7.29-1.83,10.86-2.4,10.6-10.28,16.38-20.25,15-9.49-1.29-16.43-9.72-15.21-20.18,5.43-46.56,25.23-84.91,66.16-109.89,53.56-32.7,106.76-26.6,159.24,3.35,2.9,1.65,5.76,3.37,8.61,5.1,16.78,10.17,33.33,9.8,49.94-.59,31.82-19.91,65.87-33.22,104.06-28.86,74.88,8.54,124.69,62.71,129.46,139.4C722.15,238.5,721.83,244.52,721.83,250.52Z"/><path class="cls-2" d="M624.4,833c-13.35,0-26.7.09-40,0-12-.11-19.87-7.25-19.83-17.67,0-9.76,7.93-17.52,19.22-17.68,24-.32,48-.09,72.08-.14,14.1,0,17.28-2.47,18.68-16.25,3.82-37.5,21-66.86,52.24-88.11,18.48-12.58,36.6-25.67,55.12-38.18C798.79,643.52,810.43,628.6,817,609c20.31-60.51,30.13-122.94,35.25-186.28,1.09-13.5-6.33-23.28-18-24.6-11.91-1.36-20.35,6.46-22.25,20.32-3.27,23.78-6.69,47.54-10,71.31-3.62,25.89-18.71,44.45-38.63,59.69-7.42,5.68-17.57,4.13-23.61-2.57a17.66,17.66,0,0,1-.19-23.75c2.37-2.75,5.45-4.89,8.24-7.26,10.6-9,17.34-19.93,19.11-34,3-23.49,6.63-46.89,9.56-70.39,3.67-29.43,29-50.67,59.3-49.32,28.44,1.25,52.13,25.32,52.21,54.5.07,26.72-3.55,53.23-7.62,79.62-6.82,44.24-16.34,87.81-31.51,130.05-8.67,24.14-24,42.79-45,57.11-18.76,12.75-37.11,26.11-56,38.74-22.91,15.35-35.49,36.55-37.68,63.94-1.17,14.67-6.73,27.12-18.27,36.5-8.25,6.71-17.57,10.6-28.5,10.39C650.43,832.81,637.41,833,624.4,833Z"/><path class="cls-2" d="M300.73,833c-12,0-24,0-36.05,0-25.78-.08-44.06-14.55-48.46-40-4.18-24.1-13.6-45.29-30.66-62.81-10.54-10.83-23.6-18.52-35.8-27.25-10-7.18-20.28-14.09-30.56-20.93C94.65,665.65,80.58,642,72,614.53A774.52,774.52,0,0,1,37.33,424C35.55,391.14,57,364.77,87.1,362.32c32.68-2.67,58.18,19.23,62.22,53,2.62,21.86,6,43.61,8.73,65.46a51.73,51.73,0,0,0,20,35.65,58,58,0,0,1,6.76,5.94c6.46,7,6.69,18,.7,24.65a17.67,17.67,0,0,1-23.67,2.35c-20-14.77-34.71-33.12-38.3-58.68q-5-35.65-10.09-71.31c-2-14.51-10.81-22.67-22.75-21.13-11.37,1.46-18.2,9.69-17.48,22.72A747.67,747.67,0,0,0,87.88,533c5.6,26.76,12.25,53.28,21.39,79.13a80.85,80.85,0,0,0,31,40.67q24.25,16.83,48.5,33.69c33,23,54,53.88,61.15,93.8,2.68,15,5.46,17.22,20.4,17.24,23.7,0,47.4-.07,71.09.07,8.92.06,15.34,4.41,18.35,12.88,2.68,7.53-.13,13.73-5.85,18.79-3.44,3-7.6,3.82-12.1,3.79C328.09,832.93,314.41,833,300.73,833Z"/><path class="cls-2" d="M398.74,760.21c0-13.69-.3-27.37.07-41,.64-24.13-7.24-44.87-22.35-63.63-28.69-35.62-60.63-67.47-100.45-90.67-12.77-7.44-25.54-5.91-33.38,4-8.4,10.59-7,23,3.85,34,5.9,5.9,11.55,12.14,18,17.32,20.7,16.53,32.27,37.73,34.64,64.08.57,6.31,2.06,12.54,2.38,18.85.52,10.28-6.52,18.54-16,19.62-8.81,1-17.34-5.36-19.35-15.22-1.79-8.82-3-17.77-4.09-26.7-1.27-10-5.22-18.48-12.64-25.4Q235.16,642,221.15,628.43c-22.75-22.07-26.32-54.81-8.74-79.09,18.6-25.68,50.53-32.74,79.18-17.05,20,10.94,38.22,24.42,55.31,39.43,21.36,18.76,40.47,39.65,58.21,61.87,19.21,24.06,29.68,51.32,30.14,82,.47,32,.22,64.06.07,96.09-.06,12.45-5.92,20.06-15.5,21.16-12.23,1.42-20.69-6.14-20.95-19.62-.34-17.68-.08-35.37-.08-53Z"/><path class="cls-2" d="M490.7,759.85c0-19.34-1.25-38.79.3-58,2.21-27.43,14.83-50.85,32-72.07,28.33-35,60.38-65.82,98.3-90.39,20.22-13.1,41.1-20.74,65.06-10.94,40,16.37,50.29,66.89,19.8,97.67-9.15,9.24-18.44,18.38-28.13,27-8.94,8-14,17.55-15.16,29.45-.8,7.95-1.92,15.91-3.5,23.75-2.23,11-11.1,17.76-20.56,16.21-10.29-1.69-16.6-10.88-15-22.28,1.47-10.57,2.83-21.17,5-31.61a69.33,69.33,0,0,1,19.51-36.56c10-9.8,20.39-19.22,30.32-29.11,11.34-11.3,12.54-23,4-33.92-8-10.13-20.25-11.91-33.23-4.3-43.91,25.76-79.24,60.77-108.66,102-10.65,14.91-14.42,32.14-14.51,50.18-.17,31.37,0,62.74-.1,94.11,0,14.31-6.05,21.69-17.53,21.91-12.08.23-18.38-7.19-18.45-22-.09-17,0-34,0-51.06Z"/><path class="cls-2" d="M607.14,301.42c0,9.71-8.2,18.2-17.63,18.21s-17.65-8.28-17.64-18.07c0-10.12,7.69-18.06,17.49-18.09A18,18,0,0,1,607.14,301.42Z"/><path class="cls-2" d="M423.41,1268.2c-.34,30.88-11.79,57.91-29.56,82.52-20.48,28.35-46.81,50.34-76.2,68.86-6,3.81-12,7.69-18.59,10.67-14.59,6.66-29.58,7.39-43.61-.1-42.86-22.87-79.63-52.85-104.91-95.11-7.48-12.51-6.66-25.66,1.61-37.86,8.55-12.61,21.23-16.14,35.58-14.92,11.1.94,20.46,6.08,28.7,13.35,7.16,6.33,15.69,9.45,25,10.93,13,2.09,24.5-1.94,35.36-8.63,10.23-6.3,21-11.06,33.31-10.94,7.25.08,11.85,3.75,12,9.82.14,5.73-4.26,10.18-11,10.44-8.75.34-16.41,3.31-23.73,8-27.74,17.71-57.85,16.19-84-4.21-6.72-5.26-13.67-9.2-22.62-8.45-12.44,1-18.53,12.49-12.17,23.25,13.82,23.35,32.59,42.2,53.76,58.85a343.06,343.06,0,0,0,35.93,24.43c12.82,7.69,25.48,7.5,38.35-.32,27.2-16.51,52.53-35.23,73-59.88,16.88-20.32,29.24-42.87,33-69.44a87.26,87.26,0,0,0-3.89-41.23c-11.2-32.47-47.91-47.61-80.69-33.5a146,146,0,0,0-16.53,8.55c-16.35,9.65-32.82,9.73-49.15-.17-8.24-5-16.72-9.54-26.14-11.77-35.84-8.47-67.36,12.41-73.72,48.7-.36,2-.58,4.11-1,6.12-1.35,6-5.8,9.24-11.42,8.48a10,10,0,0,1-8.58-11.38c3.06-26.26,14.23-47.9,37.32-62,30.22-18.45,60.23-15,89.83,1.89,1.63.93,3.25,1.9,4.85,2.88,9.47,5.73,18.81,5.53,28.18-.34,17.94-11.23,37.15-18.74,58.7-16.28,42.24,4.82,70.33,35.37,73,78.64C423.59,1261.42,423.41,1264.82,423.41,1268.2Z"/><path class="cls-2" d="M368.45,1596.78c-7.53,0-15.06,0-22.59,0-6.75-.06-11.2-4.09-11.18-10,0-5.5,4.47-9.88,10.84-10,13.55-.18,27.11,0,40.66-.08,7.95,0,9.75-1.39,10.54-9.16,2.16-21.16,11.87-37.72,29.47-49.71,10.42-7.09,20.64-14.48,31.09-21.53a49.18,49.18,0,0,0,19.82-25.9c11.46-34.13,17-69.35,19.88-105.08.62-7.61-3.57-13.13-10.13-13.88-6.72-.76-11.48,3.65-12.56,11.47-1.84,13.41-3.77,26.81-5.65,40.22-2,14.61-10.55,25.08-21.79,33.67a9.83,9.83,0,0,1-13.32-1.44,10,10,0,0,1-.1-13.4,39.74,39.74,0,0,1,4.65-4.1c6-5.05,9.77-11.24,10.77-19.17,1.67-13.25,3.74-26.45,5.4-39.71,2.07-16.6,16.33-28.58,33.45-27.82A31.12,31.12,0,0,1,517.15,1362c0,15.07-2,30-4.3,44.91-3.85,25-9.22,49.53-17.77,73.36-4.9,13.62-13.52,24.14-25.41,32.22-10.58,7.19-20.93,14.72-31.56,21.85-12.92,8.66-20,20.62-21.25,36.07-.66,8.27-3.8,15.3-10.31,20.59a24.12,24.12,0,0,1-16.08,5.86C383.14,1596.67,375.79,1596.78,368.45,1596.78Z"/><path class="cls-2" d="M185.87,1596.78c-6.78,0-13.56,0-20.34,0-14.54,0-24.85-8.21-27.33-22.57-2.36-13.59-7.68-25.54-17.3-35.43-5.94-6.11-13.31-10.44-20.19-15.37-5.66-4.05-11.44-7.94-17.24-11.8-13.85-9.23-21.79-22.56-26.65-38.07a436.54,436.54,0,0,1-19.53-107.46c-1-18.56,11.1-33.43,28.07-34.81,18.44-1.51,32.82,10.85,35.1,29.87,1.48,12.33,3.41,24.61,4.92,36.93a29.19,29.19,0,0,0,11.28,20.11,33,33,0,0,1,3.82,3.35,10.5,10.5,0,0,1,.39,13.9,10,10,0,0,1-13.36,1.33c-11.26-8.33-19.58-18.68-21.6-33.1q-2.82-20.12-5.69-40.23c-1.15-8.18-6.1-12.78-12.83-11.92-6.41.83-10.27,5.47-9.87,12.82a422.67,422.67,0,0,0,8.28,63.19,345.34,345.34,0,0,0,12.07,44.64,45.65,45.65,0,0,0,17.47,22.95q13.68,9.48,27.36,19c18.61,13,30.46,30.39,34.49,52.91,1.51,8.45,3.08,9.72,11.51,9.73,13.37,0,26.73,0,40.1,0,5,0,8.66,2.49,10.35,7.26,1.51,4.25-.07,7.75-3.3,10.6a9.6,9.6,0,0,1-6.82,2.14C201.31,1596.74,193.59,1596.77,185.87,1596.78Z"/><path class="cls-2" d="M241.16,1555.72c0-7.72-.17-15.44,0-23.16.36-13.6-4.08-25.31-12.61-35.89-16.19-20.09-34.2-38.05-56.66-51.14-7.21-4.2-14.41-3.34-18.83,2.23-4.74,6-4,13,2.17,19.16a126.74,126.74,0,0,0,10.18,9.77c11.67,9.32,18.2,21.28,19.54,36.15.32,3.55,1.16,7.07,1.34,10.63a10.33,10.33,0,0,1-9.05,11.07c-5,.56-9.79-3-10.92-8.59-1-5-1.67-10-2.3-15.06a22.8,22.8,0,0,0-7.13-14.33q-8.06-7.51-16-15.18c-12.83-12.45-14.85-30.92-4.93-44.62,10.49-14.48,28.5-18.46,44.66-9.61a174.26,174.26,0,0,1,31.2,22.24,271.09,271.09,0,0,1,32.84,34.9c10.84,13.58,16.74,29,17,46.28.27,18.06.13,36.14,0,54.21,0,7-3.34,11.31-8.74,11.93-6.9.8-11.67-3.46-11.82-11.07-.19-10,0-20,0-29.92Z"/><path class="cls-2" d="M293,1555.52c0-10.92-.7-21.89.17-32.73,1.25-15.47,8.37-28.68,18.06-40.66,16-19.74,34.06-37.12,55.45-51,11.41-7.39,23.18-11.7,36.7-6.17a33.56,33.56,0,0,1,11.17,55.09c-5.16,5.22-10.4,10.37-15.87,15.26a24.7,24.7,0,0,0-8.55,16.61c-.46,4.49-1.08,9-2,13.4-1.26,6.23-6.27,10-11.6,9.15-5.81-1-9.36-6.14-8.47-12.57.83-6,1.6-12,2.8-17.83a39.12,39.12,0,0,1,11-20.63c5.65-5.52,11.5-10.84,17.1-16.42,6.4-6.37,7.08-13,2.24-19.13-4.48-5.72-11.42-6.72-18.74-2.43-24.77,14.53-44.7,34.28-61.3,57.51-6,8.41-8.13,18.13-8.18,28.31-.1,17.69,0,35.39-.06,53.08,0,8.08-3.41,12.24-9.89,12.37-6.81.13-10.37-4.06-10.41-12.43,0-9.6,0-19.2,0-28.8Z"/><path class="cls-2" d="M358.72,1296.91a10.37,10.37,0,0,1-10,10.28,10.21,10.21,0,0,1-9.95-10.2,10,10,0,0,1,9.87-10.2A10.15,10.15,0,0,1,358.72,1296.91Z"/><path class="cls-2" d="M664.3,1424.78l-39.52-4.23v52.56H589.5V1339.4h35.28v46l39.34,4.06-.35-49.57,35.28-.71.88,135.31-35.28-.18Z"/><path class="cls-2" d="M774.48,1473.29l-.18-8.29a36.79,36.79,0,0,1-11.82,6.53A43.6,43.6,0,0,1,748,1474a38.68,38.68,0,0,1-21.53-6.44,46.27,46.27,0,0,1-15.69-17.38,50.13,50.13,0,0,1-5.83-24,49.45,49.45,0,0,1,6-24.17,44.65,44.65,0,0,1,39.69-23.46,36.46,36.46,0,0,1,13,2.3,24.84,24.84,0,0,1,9.79,6.35v-7.59H802.7l4.06,93.67Zm-11.65-31.22a20.1,20.1,0,0,0,6.71-7.5,21.09,21.09,0,0,0,2.47-10,16.72,16.72,0,0,0-4.68-12.08,15.64,15.64,0,0,0-11.73-4.85,19.18,19.18,0,0,0-13.58,5.47,17.3,17.3,0,0,0-5.82,13,17.78,17.78,0,0,0,2.55,9,20.26,20.26,0,0,0,6.71,7,15.16,15.16,0,0,0,17.37-.17Z"/><path class="cls-2" d="M898.66,1386.41q7.59,8.73,7.23,24.61l-1.06,62.27H872.55l.18-41.45q0-12.88-3.44-18.35a11.24,11.24,0,0,0-10.14-5.47,14.64,14.64,0,0,0-9.44,3.18q-4,3.16-4.85,10.76l.17,51.33H813.11v-94l31.57-.53v9a62.69,62.69,0,0,1,15.7-7.24,58.81,58.81,0,0,1,17.64-2.82Q891.07,1377.68,898.66,1386.41Z"/><path class="cls-2" d="M1013.25,1333.93v139.71h-34.4v-9.88a42.9,42.9,0,0,1-13.76,7.77,49.17,49.17,0,0,1-16.76,3,32.11,32.11,0,0,1-19.4-6.62,45.87,45.87,0,0,1-14.29-17.9,56.62,56.62,0,0,1-5.29-24.35,51.7,51.7,0,0,1,5.47-23.11,51.17,51.17,0,0,1,14.37-18.08q8.91-7,18.61-7.14,18.53-.52,30.52,8.46l-.35-54.68ZM968.62,1441.8a21.47,21.47,0,0,0,7.14-7.23,17.33,17.33,0,0,0-3-22.23,18.59,18.59,0,0,0-13.32-5.55,17.57,17.57,0,0,0-12.79,5.55,18.08,18.08,0,0,0-3,22.32,20.45,20.45,0,0,0,6.88,7.14,16.4,16.4,0,0,0,8.91,2.74A17.11,17.11,0,0,0,968.62,1441.8Z"/><path class="cls-2" d="M1086.42,1411.73a83.43,83.43,0,0,0-14.11-6.44,38,38,0,0,0-11.82-2,20.83,20.83,0,0,0-8.73,1.59c-2.3,1.06-3.44,2.41-3.44,4.05q0,4.41,12.34,4.41,18,0,28,7.06t10.06,19.58a29,29,0,0,1-5.91,17.55,41.47,41.47,0,0,1-15.88,12.79,49.79,49.79,0,0,1-21.78,4.76,58.26,58.26,0,0,1-22.23-4.32,42.8,42.8,0,0,1-16.76-11.55l17.82-20.11a30.77,30.77,0,0,0,9.7,5.73,31.76,31.76,0,0,0,11.11,2,21,21,0,0,0,9.26-1.85q3.8-1.86,3.8-4.5c0-1.41-.83-2.41-2.47-3s-4.41-.88-8.29-.88a21,21,0,0,1-3.18.17,36.5,36.5,0,0,1-16.67-4,34,34,0,0,1-12.61-10.68,24.06,24.06,0,0,1,.7-29.63,39.36,39.36,0,0,1,14.65-11.38,45,45,0,0,1,19.4-4.32,55.73,55.73,0,0,1,20.55,4.06,65.59,65.59,0,0,1,18.79,11.29Z"/><path class="cls-2" d="M1175.15,1467.12a50.27,50.27,0,0,1-18.08-18.44,48.73,48.73,0,0,1-6.62-24.61q0-14.46,7.5-25a48.74,48.74,0,0,1,18.87-16.06,52.76,52.76,0,0,1,23-5.47q15.18,0,26.46,5.74a41.49,41.49,0,0,1,17.47,16.31q6.17,10.59,6.17,24.7a50,50,0,0,1-6.53,25.31,47.5,47.5,0,0,1-17.9,17.91,49.64,49.64,0,0,1-25.14,6.53A48.15,48.15,0,0,1,1175.15,1467.12Zm38.54-27.88q4.85-4.76,4.85-13a20.22,20.22,0,0,0-4.58-13.41q-4.59-5.46-13.59-5.46a17.65,17.65,0,0,0-13.14,5.29,17.89,17.89,0,0,0-5.2,13.05,17.34,17.34,0,0,0,5.47,13.14,19.38,19.38,0,0,0,13.93,5.21A16.76,16.76,0,0,0,1213.69,1439.24Z"/><path class="cls-2" d="M1306.21,1366.83c-1.59,2.89-2.56,6.91-2.91,12.09l27.17.35-1.94,31.75-24-.35,2.64,62.27H1271l-.71-62.8-18.17-.18-3.35-31.75,21.17.35-.18-12.17q-.71-17.82,10-26.64t28.49-8.82a53.08,53.08,0,0,1,17,2.65,36.06,36.06,0,0,1,13.32,7.76l-1.23,25.05q-.54-.35-5.65-3.26a25,25,0,0,0-12.52-2.91,19.52,19.52,0,0,0-6.18.88A11.62,11.62,0,0,0,1306.21,1366.83Z"/><path class="cls-2" d="M1465.06,1424.78l-39.52-4.23v52.56h-35.28V1339.4h35.28v46l39.34,4.06-.35-49.57,35.28-.71.88,135.31-35.28-.18Z"/><path class="cls-2" d="M1530.43,1467.12a50.35,50.35,0,0,1-18.08-18.44,48.72,48.72,0,0,1-6.61-24.61q0-14.46,7.49-25a48.7,48.7,0,0,1,18.88-16.06,52.73,52.73,0,0,1,23-5.47q15.16,0,26.46,5.74a41.52,41.52,0,0,1,17.46,16.31q6.18,10.59,6.18,24.7a50,50,0,0,1-6.53,25.31,47.57,47.57,0,0,1-17.9,17.91,49.67,49.67,0,0,1-25.14,6.53A48.18,48.18,0,0,1,1530.43,1467.12Zm38.55-27.88q4.85-4.76,4.85-13a20.17,20.17,0,0,0-4.59-13.41q-4.59-5.46-13.58-5.46a17.63,17.63,0,0,0-13.14,5.29,17.9,17.9,0,0,0-5.21,13.05,17.34,17.34,0,0,0,5.47,13.14,19.39,19.39,0,0,0,13.94,5.21A16.78,16.78,0,0,0,1569,1439.24Z"/><path class="cls-2" d="M1695.47,1390.47q9.71,12.43,9.7,31.66a61.06,61.06,0,0,1-5,25,43.19,43.19,0,0,1-14.2,18,35.57,35.57,0,0,1-21.35,6.61q-13,0-21.7-4.76l1.59,48.51h-34.93V1379.09l28.76.18,1.23,9.35a51,51,0,0,1,14.47-8.29,39.73,39.73,0,0,1,15.17-3Q1685.77,1378,1695.47,1390.47Zm-23,47.89q4.32-4.58,4.32-12.52,0-8.29-4.76-13.32a16.47,16.47,0,0,0-12.52-5,17.61,17.61,0,0,0-12.62,4.77,15.82,15.82,0,0,0-5,12,17.66,17.66,0,0,0,5.74,13.14,18.73,18.73,0,0,0,13.49,5.56A14.91,14.91,0,0,0,1672.45,1438.36Z"/><path class="cls-2" d="M1788.4,1391.44q12.16,12.88,12.17,35.1c0,2.47-.06,4.36-.18,5.65l-62.44.7a25.86,25.86,0,0,0,5.91,9.62,13.53,13.53,0,0,0,8.91,4.14q14.1,1.06,20.46-8.29l25.22,7.24a34,34,0,0,1-8.82,14.9,46,46,0,0,1-15.61,10.32,49.32,49.32,0,0,1-18.78,3.71,27.91,27.91,0,0,1-3.53-.18,44.92,44.92,0,0,1-22.49-7.94,51,51,0,0,1-16.41-18.52,52.55,52.55,0,0,1-6.09-25.05,34.48,34.48,0,0,1,.18-4.06,39.59,39.59,0,0,1,7.15-20.81,43.55,43.55,0,0,1,16.93-14.29,52.25,52.25,0,0,1,23.2-5.12Q1776.23,1378.56,1788.4,1391.44Zm-50.28,19.93,29.82.18a11.94,11.94,0,0,0-4.15-7.94,13.8,13.8,0,0,0-7.85-3.17Q1742.89,1399.38,1738.12,1411.37Z"/><path class="cls-2" d="M656.6,1595.33l-2.22-47.6-10.18,47.6H623l-11.77-44.52-.53,43.35-21.2.11v-80.35l15.27.95,16.21.53L632.86,1558l8-43.25h33.18l3.71,79.82Z"/><path class="cls-2" d="M754.35,1577.41l-26.93-.1-6.78,16.85-21.2-8.69,34.77-70.92,21.2.22L780.32,1590l-21.2,5.09Zm-5.73-21.2-5.09-19.08-7.63,19Z"/><path class="cls-2" d="M852.28,1574.13v21.2H802.46v-80.78h21.2v59.58Z"/><path class="cls-2" d="M929.06,1577.41l-26.92-.1-6.79,16.85-21.2-8.69,34.77-70.92,21.2.22L955,1590l-21.2,5.09Zm-5.72-21.2-5.09-19.08-7.63,19Z"/><path class="cls-2" d="M1089.79,1524l-27.66,72.82h-25.66l-8.48-39.54-8.58,37.42H992.8l-22.47-73.14,23.64-7.42,12.72,45.58,12.4-43.67h19.5l10.07,47.28,16.43-51.2Z"/><path class="cls-2" d="M1112,1514.55h20.56l-.63,80.57h-20.57Z"/><polygon class="cls-1" points="925.23 1850.46 0 1850.46 0 2775.69 925.23 2775.69 1850.46 2775.69 1850.46 1850.46 925.23 1850.46"/><path class="cls-2" d="M152.46,2256.15,94.93,2250v76.54H43.56V2131.84H94.93v67l57.27,5.9-.51-72.17,51.37-1,1.28,197-51.36-.25Z"/><path class="cls-2" d="M312.89,2326.79l-.26-12.08a53.46,53.46,0,0,1-17.21,9.51,63.24,63.24,0,0,1-21.06,3.59,56.27,56.27,0,0,1-31.34-9.37,67.38,67.38,0,0,1-22.86-25.3,73.19,73.19,0,0,1-8.47-34.93,72,72,0,0,1,8.73-35.19,65,65,0,0,1,57.79-34.16,53.24,53.24,0,0,1,18.88,3.34,36.1,36.1,0,0,1,14.25,9.25v-11H354l5.91,136.39Zm-17-45.47a29.25,29.25,0,0,0,9.76-10.91,30.61,30.61,0,0,0,3.6-14.51,24.37,24.37,0,0,0-6.81-17.6,22.76,22.76,0,0,0-17.08-7.06,28,28,0,0,0-19.77,8,25.21,25.21,0,0,0-8.48,19,25.85,25.85,0,0,0,3.72,13.1,29.59,29.59,0,0,0,9.76,10.27,22.1,22.1,0,0,0,25.3-.26Z"/><path class="cls-2" d="M493.7,2200.29q11,12.71,10.53,35.83l-1.54,90.67h-47l.25-60.36q0-18.75-5-26.72t-14.77-8a21.27,21.27,0,0,0-13.74,4.63q-5.79,4.62-7.07,15.66l.26,74.75H369.13v-136.9l46-.77v13.1A91,91,0,0,1,438,2191.68a85.77,85.77,0,0,1,25.68-4.1Q482.66,2187.58,493.7,2200.29Z"/><path class="cls-2" d="M660.54,2123.88V2327.3H610.46v-14.38a62.66,62.66,0,0,1-20,11.3,71.33,71.33,0,0,1-24.4,4.36q-15.16,0-28.26-9.63T517,2292.88a82.38,82.38,0,0,1-7.71-35.44,75.3,75.3,0,0,1,8-33.65,74.52,74.52,0,0,1,20.93-26.33q13-10.14,27.09-10.4,27-.76,44.44,12.33l-.51-79.62Zm-65,157.06a31.36,31.36,0,0,0,10.4-10.53,25.61,25.61,0,0,0,4-13.49q0-10.78-8.35-18.88a27,27,0,0,0-19.39-8.09q-10.55,0-18.62,8.09a26.32,26.32,0,0,0-4.37,32.5,29.78,29.78,0,0,0,10,10.4,23.87,23.87,0,0,0,13,4A24.93,24.93,0,0,0,595.56,2280.94Z"/><path class="cls-2" d="M767.08,2237.15a121.31,121.31,0,0,0-20.55-9.38,55.33,55.33,0,0,0-17.2-2.95,30.45,30.45,0,0,0-12.72,2.31q-5,2.31-5,5.91,0,6.42,18,6.42,26.2,0,40.84,10.27t14.64,28.51a42.21,42.21,0,0,1-8.6,25.56,60.42,60.42,0,0,1-23.12,18.62,72.67,72.67,0,0,1-31.72,6.93,84.86,84.86,0,0,1-32.36-6.29q-15.42-6.29-24.4-16.82L690.8,2277a44.94,44.94,0,0,0,14.13,8.34,45.87,45.87,0,0,0,16.18,3,30.5,30.5,0,0,0,13.48-2.7q5.52-2.7,5.52-6.55c0-2.05-1.2-3.51-3.59-4.36s-6.42-1.29-12.07-1.29a30.7,30.7,0,0,1-4.63.26,53.1,53.1,0,0,1-24.27-5.78,49.33,49.33,0,0,1-18.36-15.54,35.6,35.6,0,0,1-6.94-21.06q0-11.82,8-22.09a57.32,57.32,0,0,1,21.32-16.57,65.53,65.53,0,0,1,28.25-6.29,81.31,81.31,0,0,1,29.93,5.91,96,96,0,0,1,27.35,16.44Z"/><path class="cls-2" d="M896.27,2317.8A73.41,73.41,0,0,1,869.94,2291a71,71,0,0,1-9.63-35.83q0-21.06,10.92-36.48a70.89,70.89,0,0,1,27.48-23.37,76.82,76.82,0,0,1,33.52-8q22.08,0,38.53,8.35a60.36,60.36,0,0,1,25.42,23.75q9,15.42,9,36a72.81,72.81,0,0,1-9.5,36.86,69.34,69.34,0,0,1-26.07,26.07,72.18,72.18,0,0,1-36.6,9.5A70.11,70.11,0,0,1,896.27,2317.8Zm56.12-40.59q7.07-6.93,7.06-19,0-11.57-6.67-19.52t-19.78-8q-11.57,0-19.14,7.7a26.06,26.06,0,0,0-7.57,19,25.28,25.28,0,0,0,8,19.13q8,7.59,20.29,7.58Q945.33,2284.15,952.39,2277.21Z"/><path class="cls-2" d="M1087.1,2171.78q-3.46,6.3-4.24,17.59l39.56.52-2.83,46.23-34.93-.51,3.85,90.66h-52.65l-1-91.44-26.45-.25-4.88-46.23,30.82.51-.26-17.72q-1-25.93,14.52-38.79t41.48-12.84a77.35,77.35,0,0,1,24.78,3.85,52.46,52.46,0,0,1,19.39,11.31l-1.79,36.47q-.78-.51-8.22-4.75t-18.24-4.24a28.63,28.63,0,0,0-9,1.28A16.94,16.94,0,0,0,1087.1,2171.78Z"/><path class="cls-2" d="M1318.39,2256.15l-57.54-6.16v76.54h-51.36V2131.84h51.36v67l57.28,5.9-.51-72.17,51.37-1,1.28,197-51.37-.25Z"/><path class="cls-2" d="M1413.57,2317.8a73.31,73.31,0,0,1-26.32-26.84,71,71,0,0,1-9.64-35.83q0-21.06,10.92-36.48a71,71,0,0,1,27.48-23.37,76.82,76.82,0,0,1,33.52-8q22.1,0,38.53,8.35a60.44,60.44,0,0,1,25.43,23.75q9,15.42,9,36a72.81,72.81,0,0,1-9.5,36.86,69.2,69.2,0,0,1-26.07,26.07,72.18,72.18,0,0,1-36.6,9.5A70.14,70.14,0,0,1,1413.57,2317.8Zm56.12-40.59q7.07-6.93,7.07-19,0-11.57-6.68-19.52t-19.78-8q-11.55,0-19.13,7.7a26,26,0,0,0-7.58,19,25.28,25.28,0,0,0,8,19.13q8,7.59,20.29,7.58Q1462.63,2284.15,1469.69,2277.21Z"/><path class="cls-2" d="M1653.87,2206.2q14.13,18.11,14.13,46.1a88.88,88.88,0,0,1-7.32,36.34q-7.32,16.58-20.68,26.2t-31.07,9.63q-19,0-31.6-6.93l2.31,70.63h-50.85V2189.63l41.87.26,1.79,13.61a74.41,74.41,0,0,1,21.06-12.07q12.08-4.62,22.09-4.37Q1639.75,2188.1,1653.87,2206.2Zm-33.52,69.73q6.3-6.67,6.3-18.24,0-12.06-6.94-19.39t-18.23-7.32q-11.06,0-18.37,6.94a23,23,0,0,0-7.32,17.46,25.77,25.77,0,0,0,8.35,19.14,27.31,27.31,0,0,0,19.65,8.09Q1614.05,2282.61,1620.35,2275.93Z"/><path class="cls-2" d="M1789.18,2207.61q17.71,18.75,17.72,51.11,0,5.4-.26,8.22l-90.92,1a37.72,37.72,0,0,0,8.6,14,19.78,19.78,0,0,0,13,6q20.54,1.55,29.79-12.07l36.73,10.53a49.42,49.42,0,0,1-12.84,21.7,67.17,67.17,0,0,1-22.73,15,71.77,71.77,0,0,1-27.36,5.39,41.17,41.17,0,0,1-5.14-.25,65.49,65.49,0,0,1-32.74-11.56,74.26,74.26,0,0,1-23.89-27,76.56,76.56,0,0,1-8.86-36.47,49.06,49.06,0,0,1,.26-5.91,57.76,57.76,0,0,1,10.4-30.31,63.6,63.6,0,0,1,24.66-20.8,75.94,75.94,0,0,1,33.77-7.45Q1771.45,2188.86,1789.18,2207.61Zm-73.2,29,43.4.26q-1-7.44-6-11.56a20.21,20.21,0,0,0-11.43-4.62Q1722.92,2219.17,1716,2236.63Z"/><path class="cls-2" d="M141.26,2504.48l-3.24-69.3-14.82,69.3H92.33L75.2,2439.65l-.77,63.13-30.87.15v-117l22.22,1.39,23.62.77,17.29,62.05,11.73-63h48.31l5.4,116.22Z"/><path class="cls-2" d="M283.58,2478.39l-39.21-.15-9.87,24.54-30.87-12.66,50.62-103.25,30.87.31,36.27,109.58-30.87,7.41Zm-8.34-30.87-7.41-27.78-11.11,27.63Z"/><path class="cls-2" d="M426.17,2473.61v30.87H353.63V2386.87H384.5v86.74Z"/><path class="cls-2" d="M538,2478.39l-39.2-.15-9.88,24.54L458,2490.12l50.63-103.25,30.87.31,36.27,109.58-30.87,7.41Zm-8.33-30.87-7.41-27.78-11.11,27.63Z"/><path class="cls-2" d="M772,2400.6l-40.28,106H694.36L682,2449.07l-12.5,54.48H630.77l-32.72-106.5,34.42-10.8L651,2452.62,669.05,2389h28.4l14.66,68.83L736,2383.32Z"/><path class="cls-2" d="M804.34,2386.87h29.94l-.92,117.3H803.42Z"/><rect class="cls-2" x="2775.69" width="925.23" height="925.23"/><path class="cls-1" d="M3371.68,246.64c-.31,28.38-10.83,53.22-27.17,75.85-18.81,26.05-43,46.26-70,63.28a145.09,145.09,0,0,1-17.09,9.81c-13.41,6.12-27.19,6.79-40.08-.09-39.39-21-73.19-48.57-96.43-87.42-6.87-11.5-6.12-23.59,1.48-34.8,7.86-11.59,19.52-14.84,32.71-13.71,10.2.87,18.8,5.58,26.37,12.27,6.59,5.82,14.43,8.68,23,10.05,12,1.91,22.52-1.79,32.5-7.94,9.4-5.79,19.26-10.17,30.62-10.05,6.67.07,10.89,3.44,11,9,.13,5.27-3.91,9.36-10.1,9.6-8,.32-15.08,3-21.81,7.34-25.49,16.28-53.17,14.88-77.19-3.87-6.18-4.83-12.56-8.45-20.79-7.76-11.43,1-17,11.48-11.18,21.36,12.7,21.47,30,38.8,49.4,54.1a315.6,315.6,0,0,0,33,22.45c11.78,7.07,23.42,6.89,35.25-.29,25-15.17,48.28-32.38,67.09-55,15.51-18.68,26.87-39.4,30.36-63.82a80.29,80.29,0,0,0-3.58-37.9c-10.29-29.84-44-43.76-74.17-30.79a135.6,135.6,0,0,0-15.19,7.86c-15,8.86-30.17,8.94-45.17-.16-7.58-4.6-15.37-8.77-24-10.82-32.94-7.78-61.91,11.41-67.76,44.76-.33,1.88-.53,3.78-.95,5.63-1.24,5.5-5.33,8.5-10.5,7.79a9.2,9.2,0,0,1-7.89-10.46c2.82-24.13,13.09-44,34.3-57,27.78-17,55.36-13.79,82.57,1.73,1.5.86,3,1.75,4.46,2.65,8.7,5.27,17.28,5.08,25.9-.31,16.49-10.32,34.15-17.22,53.95-15,38.82,4.43,64.65,32.51,67.12,72.27C3371.85,240.4,3371.68,243.53,3371.68,246.64Z"/><path class="cls-1" d="M3321.17,548.64c-6.92,0-13.84,0-20.76,0-6.21,0-10.3-3.75-10.28-9.16,0-5.06,4.11-9.08,10-9.16,12.45-.17,24.91,0,37.37-.07,7.31,0,9-1.28,9.68-8.43,2-19.45,10.91-34.67,27.09-45.68,9.58-6.53,19-13.31,28.58-19.8a45.13,45.13,0,0,0,18.21-23.8c10.53-31.37,15.62-63.74,18.27-96.58.57-7-3.28-12.07-9.31-12.76s-10.55,3.36-11.54,10.54c-1.69,12.33-3.47,24.65-5.19,37-1.88,13.43-9.7,23.05-20,30.95a9,9,0,0,1-12.24-1.33,9.17,9.17,0,0,1-.1-12.32,37.52,37.52,0,0,1,4.27-3.76c5.5-4.64,9-10.33,9.91-17.62,1.54-12.18,3.44-24.31,5-36.5,1.9-15.25,15-26.27,30.74-25.57a28.61,28.61,0,0,1,27.07,28.26c0,13.85-1.84,27.59-4,41.28-3.54,22.94-8.47,45.53-16.34,67.43-4.49,12.51-12.42,22.18-23.35,29.61-9.72,6.61-19.24,13.53-29,20.08-11.88,8-18.4,18.95-19.54,33.15-.61,7.61-3.49,14.07-9.47,18.93a22.21,22.21,0,0,1-14.78,5.39C3334.67,548.54,3327.92,548.64,3321.17,548.64Z"/><path class="cls-1" d="M3153.35,548.64c-6.23,0-12.46,0-18.69,0-13.36,0-22.84-7.54-25.12-20.74-2.17-12.49-7.05-23.48-15.9-32.57-5.46-5.61-12.24-9.6-18.56-14.12-5.2-3.73-10.51-7.31-15.84-10.86-12.73-8.48-20-20.73-24.5-35a401.34,401.34,0,0,1-17.95-98.77c-.92-17.06,10.21-30.72,25.81-32,16.94-1.38,30.16,10,32.25,27.46,1.36,11.33,3.14,22.62,4.53,33.94a26.8,26.8,0,0,0,10.37,18.48,32.13,32.13,0,0,1,3.5,3.08,9.66,9.66,0,0,1,.36,12.79,9.16,9.16,0,0,1-12.27,1.21c-10.35-7.65-18-17.17-19.86-30.42q-2.59-18.5-5.23-37c-1.06-7.51-5.6-11.75-11.79-11-5.9.76-9.44,5-9.07,11.78a387.33,387.33,0,0,0,7.61,58.08,317,317,0,0,0,11.09,41,42,42,0,0,0,16,21.09q12.59,8.73,25.15,17.47c17.11,11.94,28,27.93,31.71,48.63,1.39,7.76,2.83,8.93,10.57,8.94,12.29,0,24.58,0,36.86,0,4.63,0,8,2.28,9.52,6.67,1.39,3.91-.07,7.12-3,9.74a8.78,8.78,0,0,1-6.27,2C3167.54,548.6,3160.45,548.63,3153.35,548.64Z"/><path class="cls-1" d="M3204.17,510.9c0-7.1-.15-14.19,0-21.28.33-12.51-3.75-23.26-11.59-33-14.88-18.47-31.43-35-52.08-47-6.62-3.86-13.24-3.06-17.31,2.06-4.35,5.49-3.65,11.94,2,17.6a116.35,116.35,0,0,0,9.35,9c10.73,8.57,16.73,19.56,18,33.23.3,3.27,1.07,6.5,1.24,9.77a9.49,9.49,0,0,1-8.32,10.17c-4.57.52-9-2.78-10-7.89-.93-4.57-1.54-9.21-2.12-13.84a20.89,20.89,0,0,0-6.56-13.17q-7.39-6.91-14.66-13.95c-11.79-11.45-13.64-28.42-4.52-41,9.64-13.32,26.19-17,41-8.84a160.11,160.11,0,0,1,28.67,20.44,249.68,249.68,0,0,1,30.19,32.08c10,12.48,15.38,26.61,15.62,42.53.25,16.61.12,33.22,0,49.83,0,6.45-3.07,10.4-8,11-6.34.73-10.72-3.19-10.86-10.18-.18-9.16,0-18.33,0-27.5Z"/><path class="cls-1" d="M3251.85,510.71c0-10-.65-20.11.16-30.07,1.14-14.22,7.69-26.37,16.59-37.37,14.69-18.15,31.31-34.13,51-46.86,10.48-6.8,21.31-10.76,33.73-5.67a30.85,30.85,0,0,1,10.27,50.63c-4.75,4.79-9.56,9.53-14.59,14a22.72,22.72,0,0,0-7.86,15.26c-.42,4.13-1,8.26-1.81,12.32-1.16,5.72-5.76,9.21-10.66,8.4-5.34-.87-8.61-5.64-7.78-11.55.76-5.48,1.47-11,2.57-16.39a36,36,0,0,1,10.12-18.95c5.19-5.08,10.57-10,15.72-15.09,5.88-5.86,6.5-11.93,2.06-17.59-4.12-5.25-10.5-6.18-17.23-2.23-22.77,13.36-41.08,31.51-56.34,52.86-5.52,7.73-7.47,16.66-7.52,26-.09,16.26,0,32.52-.05,48.79,0,7.42-3.14,11.24-9.09,11.36-6.27.12-9.53-3.73-9.57-11.42,0-8.83,0-17.65,0-26.47Z"/><path class="cls-1" d="M3312.22,273a9.52,9.52,0,0,1-9.14,9.44,9.37,9.37,0,0,1-9.14-9.37,9.15,9.15,0,0,1,9.06-9.38A9.32,9.32,0,0,1,3312.22,273Z"/><path class="cls-1" d="M2876.56,685l-26.94-2.89v35.83h-24V626.75h24v31.38l26.82,2.77-.24-33.79,24-.48.6,92.22-24-.12Z"/><path class="cls-1" d="M2951.65,718l-.12-5.65a25,25,0,0,1-8.05,4.45,29.7,29.7,0,0,1-9.86,1.68A26.31,26.31,0,0,1,2919,714.1a31.49,31.49,0,0,1-10.7-11.84,34.31,34.31,0,0,1-4-16.35,33.64,33.64,0,0,1,4.09-16.47,30.41,30.41,0,0,1,27.05-16,24.92,24.92,0,0,1,8.84,1.57,16.77,16.77,0,0,1,6.67,4.33v-5.17h20l2.77,63.84Zm-7.93-21.28a13.85,13.85,0,0,0,4.57-5.11,14.34,14.34,0,0,0,1.68-6.79,11.41,11.41,0,0,0-3.18-8.24,10.69,10.69,0,0,0-8-3.31,13.13,13.13,0,0,0-9.26,3.73,11.82,11.82,0,0,0-4,8.9,12,12,0,0,0,1.75,6.13,13.79,13.79,0,0,0,4.57,4.81,10.35,10.35,0,0,0,11.84-.12Z"/><path class="cls-1" d="M3036.3,658.79q5.16,6,4.93,16.78l-.72,42.44h-22l.12-28.25q0-8.78-2.34-12.51a7.66,7.66,0,0,0-6.91-3.73,10,10,0,0,0-6.44,2.17c-1.8,1.44-2.9,3.89-3.3,7.33l.12,35H2978V653.93l21.53-.37v6.14a42.1,42.1,0,0,1,10.7-4.93,40.05,40.05,0,0,1,12-1.93Q3031.13,652.84,3036.3,658.79Z"/><path class="cls-1" d="M3114.4,623v95.22H3091v-6.73a29.28,29.28,0,0,1-9.37,5.29,33.46,33.46,0,0,1-11.43,2,21.85,21.85,0,0,1-13.22-4.51,31.13,31.13,0,0,1-9.74-12.2,38.52,38.52,0,0,1-3.61-16.59,36.67,36.67,0,0,1,13.53-28.08,21,21,0,0,1,12.68-4.87q12.63-.36,20.8,5.77l-.24-37.27ZM3084,696.55a14.72,14.72,0,0,0,4.87-4.93,11.83,11.83,0,0,0-2-15.15,12.65,12.65,0,0,0-9.08-3.79,12,12,0,0,0-8.72,3.79,12.31,12.31,0,0,0-2,15.21,13.93,13.93,0,0,0,4.69,4.87,11.2,11.2,0,0,0,6.07,1.86A11.71,11.71,0,0,0,3084,696.55Z"/><path class="cls-1" d="M3164.27,676.05a56.68,56.68,0,0,0-9.62-4.39,25.8,25.8,0,0,0-8.05-1.38,14.22,14.22,0,0,0-5.95,1.08c-1.57.72-2.35,1.64-2.35,2.76q0,3,8.42,3,12.26,0,19.12,4.81a15.43,15.43,0,0,1,6.85,13.35,19.73,19.73,0,0,1-4,12,28.32,28.32,0,0,1-10.82,8.72,34.05,34.05,0,0,1-14.85,3.24,39.77,39.77,0,0,1-15.15-2.94,29.15,29.15,0,0,1-11.42-7.88l12.14-13.71a21,21,0,0,0,6.62,3.91,21.61,21.61,0,0,0,7.57,1.39,14.31,14.31,0,0,0,6.31-1.27c1.73-.84,2.59-1.86,2.59-3.06a2.13,2.13,0,0,0-1.69-2,18.62,18.62,0,0,0-5.65-.6,14.27,14.27,0,0,1-2.16.12,24.84,24.84,0,0,1-11.36-2.7,23.12,23.12,0,0,1-8.6-7.28,16.38,16.38,0,0,1,.48-20.2,26.83,26.83,0,0,1,10-7.75,30.59,30.59,0,0,1,13.23-3,37.93,37.93,0,0,1,14,2.77,45,45,0,0,1,12.81,7.69Z"/><path class="cls-1" d="M3224.75,713.8a34.3,34.3,0,0,1-12.33-12.56,33.27,33.27,0,0,1-4.5-16.77,28.75,28.75,0,0,1,5.11-17.08,33.15,33.15,0,0,1,12.86-10.94,36,36,0,0,1,15.69-3.73,39.44,39.44,0,0,1,18,3.91,28.36,28.36,0,0,1,11.9,11.12,32.86,32.86,0,0,1,4.21,16.84,34.1,34.1,0,0,1-4.45,17.25,32.43,32.43,0,0,1-12.21,12.2,33.77,33.77,0,0,1-17.13,4.45A32.75,32.75,0,0,1,3224.75,713.8Zm26.27-19q3.3-3.24,3.31-8.89a13.77,13.77,0,0,0-3.13-9.14q-3.13-3.72-9.26-3.73a12,12,0,0,0-9,3.61,12.2,12.2,0,0,0-3.54,8.9,11.84,11.84,0,0,0,3.72,9,13.23,13.23,0,0,0,9.5,3.55A11.43,11.43,0,0,0,3251,694.8Z"/><path class="cls-1" d="M3314.08,645.45a20.17,20.17,0,0,0-2,8.24l18.51.24-1.32,21.64-16.35-.24,1.8,42.44h-24.65l-.48-42.8-12.38-.12-2.29-21.65,14.43.24-.12-8.29Q3288.77,633,3296,627t19.42-6a36.22,36.22,0,0,1,11.61,1.8,24.6,24.6,0,0,1,9.07,5.3l-.84,17.07q-.36-.24-3.85-2.23a17,17,0,0,0-8.53-2,13.32,13.32,0,0,0-4.21.6A7.91,7.91,0,0,0,3314.08,645.45Z"/><path class="cls-1" d="M3422.35,685l-26.93-2.89v35.83h-24.05V626.75h24.05v31.38l26.81,2.77-.24-33.79,24-.48.61,92.22-24-.12Z"/><path class="cls-1" d="M3466.91,713.8a34.3,34.3,0,0,1-12.33-12.56,33.28,33.28,0,0,1-4.51-16.77,28.82,28.82,0,0,1,5.11-17.08,33.25,33.25,0,0,1,12.87-10.94,36,36,0,0,1,15.69-3.73,39.4,39.4,0,0,1,18,3.91,28.33,28.33,0,0,1,11.91,11.12,32.86,32.86,0,0,1,4.21,16.84,34.1,34.1,0,0,1-4.45,17.25,32.43,32.43,0,0,1-12.21,12.2,33.77,33.77,0,0,1-17.13,4.45A32.75,32.75,0,0,1,3466.91,713.8Zm26.27-19q3.3-3.24,3.3-8.89a13.77,13.77,0,0,0-3.12-9.14q-3.14-3.72-9.26-3.73a12,12,0,0,0-9,3.61,12.2,12.2,0,0,0-3.54,8.9,11.84,11.84,0,0,0,3.72,9,13.21,13.21,0,0,0,9.5,3.55A11.43,11.43,0,0,0,3493.18,694.8Z"/><path class="cls-1" d="M3579.4,661.56q6.6,8.48,6.61,21.58a41.54,41.54,0,0,1-3.43,17,29.34,29.34,0,0,1-9.68,12.26,24.25,24.25,0,0,1-14.55,4.51q-8.89,0-14.78-3.25l1.08,33.07h-23.81V653.81l19.6.12.84,6.37a34.66,34.66,0,0,1,9.86-5.65,27.06,27.06,0,0,1,10.34-2Q3572.78,653.08,3579.4,661.56Zm-15.69,32.64c2-2.08,2.94-4.93,2.94-8.53a12.63,12.63,0,0,0-3.25-9.08,11.22,11.22,0,0,0-8.53-3.43,12,12,0,0,0-8.6,3.25,10.8,10.8,0,0,0-3.43,8.18,12.07,12.07,0,0,0,3.91,8.95,12.77,12.77,0,0,0,9.2,3.79A10.17,10.17,0,0,0,3563.71,694.2Z"/><path class="cls-1" d="M3642.73,662.22q8.3,8.78,8.3,23.93c0,1.68,0,3-.12,3.85l-42.56.48a17.52,17.52,0,0,0,4,6.55,9.2,9.2,0,0,0,6.07,2.82q9.62.74,13.94-5.65l17.2,4.93a23.19,23.19,0,0,1-6,10.16,31.58,31.58,0,0,1-10.64,7,33.69,33.69,0,0,1-12.81,2.52,18.14,18.14,0,0,1-2.4-.12,30.59,30.59,0,0,1-15.33-5.41,34.75,34.75,0,0,1-11.19-12.62,35.91,35.91,0,0,1-4.14-17.08,23.87,23.87,0,0,1,.12-2.76,27,27,0,0,1,4.87-14.19,29.73,29.73,0,0,1,11.54-9.74,35.67,35.67,0,0,1,15.81-3.49Q3634.44,653.44,3642.73,662.22Zm-34.26,13.59,20.32.12a8.12,8.12,0,0,0-2.83-5.41,9.53,9.53,0,0,0-5.35-2.17Q3611.71,667.63,3608.47,675.81Z"/><path class="cls-1" d="M3099,838.3l-1.51-32.43-6.94,32.43h-14.44l-8-30.33-.37,29.53-14.44.08V782.84l10.4.65,11.05.36,8.09,29,5.49-29.46H3111l2.53,54.37Z"/><path class="cls-1" d="M3165.62,826.09l-18.34-.07-4.62,11.48-14.45-5.92,23.69-48.31,14.44.15,17,51.27-14.44,3.46Zm-3.9-14.44-3.46-13-5.2,12.93Z"/><path class="cls-1" d="M3232.34,823.85V838.3H3198.4v-55h14.44v40.58Z"/><path class="cls-1" d="M3284.64,826.09,3266.3,826l-4.62,11.48-14.44-5.92,23.68-48.31,14.45.15,17,51.27-14.45,3.46Zm-3.9-14.44-3.46-13-5.2,12.93Z"/><path class="cls-1" d="M3394.14,789.7l-18.85,49.61h-17.47L3352,812.37l-5.85,25.49h-18.12L3312.76,788l16.1-5.06,8.67,31,8.45-29.75h13.28l6.86,32.21,11.2-34.88Z"/><path class="cls-1" d="M3409.28,783.27h14l-.44,54.88h-14Z"/><rect class="cls-2" x="1850.46" width="925.23" height="925.23"/><polygon class="cls-2" points="2775.69 925.23 1850.46 925.23 1850.46 1850.46 2775.69 1850.46 3700.92 1850.46 3700.92 925.23 2775.69 925.23"/><path class="cls-1" d="M2572.29,250.52c-.61,54.73-20.9,102.66-52.41,146.29-36.29,50.24-83,89.23-135.08,122.06-10.71,6.75-21.35,13.63-33,18.92-25.87,11.8-52.44,13.09-77.32-.18-76-40.54-141.15-93.68-186-168.61-13.27-22.18-11.81-45.49,2.85-67.11,15.17-22.36,37.64-28.62,63.09-26.45,19.66,1.67,36.25,10.77,50.86,23.67,12.7,11.22,27.82,16.74,44.28,19.38,23.08,3.7,43.44-3.45,62.69-15.3,18.13-11.17,37.14-19.62,59.05-19.39,12.86.13,21,6.64,21.26,17.39.24,10.16-7.55,18.05-19.48,18.52-15.52.61-29.09,5.87-42.07,14.15-49.17,31.4-102.55,28.71-148.87-7.46-11.93-9.31-24.24-16.3-40.1-15-22,1.85-32.85,22.15-21.58,41.21,24.5,41.4,57.78,74.82,95.3,104.34a608.3,608.3,0,0,0,63.69,43.3c22.72,13.62,45.17,13.29,68-.57,48.2-29.26,93.11-62.45,129.39-106.14,29.92-36,51.82-76,58.55-123.11a154.8,154.8,0,0,0-6.9-73.09c-19.85-57.56-84.93-84.39-143.05-59.38a258.63,258.63,0,0,0-29.3,15.15c-29,17.1-58.19,17.25-87.12-.31-14.61-8.86-29.65-16.91-46.35-20.86-63.54-15-119.4,22-130.69,86.33-.63,3.62-1,7.29-1.83,10.86-2.4,10.6-10.28,16.38-20.25,15-9.49-1.29-16.43-9.72-15.21-20.18,5.43-46.56,25.23-84.91,66.16-109.89,53.56-32.7,106.76-26.6,159.24,3.35,2.9,1.65,5.76,3.37,8.61,5.1,16.77,10.17,33.33,9.8,49.94-.59,31.81-19.91,65.87-33.22,104.06-28.86,74.88,8.54,124.69,62.71,129.46,139.4C2572.61,238.5,2572.29,244.52,2572.29,250.52Z"/><path class="cls-1" d="M2474.86,833c-13.35,0-26.7.09-40,0-12-.11-19.87-7.25-19.83-17.67,0-9.76,7.93-17.52,19.22-17.68,24-.32,48.05-.09,72.08-.14,14.1,0,17.28-2.47,18.68-16.25,3.82-37.5,21-66.86,52.24-88.11,18.48-12.58,36.6-25.67,55.12-38.18,16.92-11.42,28.56-26.34,35.13-45.9,20.31-60.51,30.13-122.94,35.25-186.28,1.09-13.5-6.33-23.28-18-24.6-11.91-1.36-20.35,6.46-22.25,20.32-3.27,23.78-6.69,47.54-10,71.31-3.62,25.89-18.71,44.45-38.63,59.69-7.42,5.68-17.57,4.13-23.61-2.57a17.66,17.66,0,0,1-.19-23.75c2.37-2.75,5.45-4.89,8.24-7.26,10.6-9,17.34-19.93,19.11-34,3-23.49,6.63-46.89,9.56-70.39,3.67-29.43,29-50.67,59.3-49.32,28.44,1.25,52.13,25.32,52.21,54.5.07,26.72-3.55,53.23-7.62,79.62-6.82,44.24-16.34,87.81-31.51,130.05-8.67,24.14-24,42.79-45,57.11-18.76,12.75-37.11,26.11-56,38.74-22.91,15.35-35.49,36.55-37.68,63.94-1.17,14.67-6.73,27.12-18.27,36.5-8.25,6.71-17.57,10.6-28.5,10.39C2500.89,832.81,2487.87,833,2474.86,833Z"/><path class="cls-1" d="M2151.19,833c-12,0-24,0-36.05,0-25.78-.08-44.06-14.55-48.46-40-4.18-24.1-13.6-45.29-30.66-62.81-10.54-10.83-23.6-18.52-35.8-27.25-10-7.18-20.28-14.09-30.56-20.93-24.55-16.36-38.62-40-47.25-67.48A774.5,774.5,0,0,1,1887.79,424c-1.78-32.89,19.69-59.26,49.77-61.71,32.68-2.67,58.18,19.23,62.22,53,2.62,21.86,6,43.61,8.73,65.46a51.73,51.73,0,0,0,20,35.65,58.88,58.88,0,0,1,6.76,5.94c6.46,7,6.69,18,.7,24.65a17.67,17.67,0,0,1-23.67,2.35c-20-14.77-34.71-33.12-38.3-58.68q-5-35.65-10.09-71.31c-2-14.51-10.81-22.67-22.75-21.13-11.37,1.46-18.2,9.69-17.48,22.72a747.67,747.67,0,0,0,14.67,112c5.6,26.76,12.25,53.28,21.39,79.13a80.89,80.89,0,0,0,31,40.67q24.27,16.83,48.51,33.69c33,23,54,53.88,61.15,93.8,2.68,15,5.46,17.22,20.4,17.24,23.7,0,47.4-.07,71.09.07,8.92.06,15.34,4.41,18.35,12.88,2.68,7.53-.13,13.73-5.85,18.79-3.44,3-7.6,3.82-12.1,3.79C2178.55,832.93,2164.87,833,2151.19,833Z"/><path class="cls-1" d="M2249.2,760.21c0-13.69-.3-27.37.07-41,.64-24.13-7.24-44.87-22.35-63.63-28.69-35.62-60.63-67.47-100.45-90.67-12.77-7.44-25.54-5.91-33.38,4-8.4,10.59-7.05,23,3.85,34,5.9,5.9,11.55,12.14,18,17.32,20.7,16.53,32.27,37.73,34.64,64.08.57,6.31,2.06,12.54,2.38,18.85.52,10.28-6.52,18.54-16,19.62-8.81,1-17.34-5.36-19.35-15.22-1.79-8.82-3-17.77-4.09-26.7-1.27-10-5.22-18.48-12.64-25.4q-14.27-13.32-28.27-26.91c-22.75-22.07-26.32-54.81-8.74-79.09,18.6-25.68,50.53-32.74,79.18-17.05,20,10.94,38.22,24.42,55.31,39.43,21.36,18.76,40.47,39.65,58.21,61.87,19.21,24.06,29.68,51.32,30.14,82,.47,32,.22,64.06.07,96.09-.06,12.45-5.92,20.06-15.5,21.16-12.23,1.42-20.69-6.14-21-19.62-.34-17.68-.08-35.37-.08-53Z"/><path class="cls-1" d="M2341.16,759.85c0-19.34-1.25-38.79.3-58,2.21-27.43,14.83-50.85,32-72.07,28.33-35,60.38-65.82,98.3-90.39,20.22-13.1,41.1-20.74,65.06-10.94,40,16.37,50.29,66.89,19.8,97.67-9.15,9.24-18.44,18.38-28.13,27-8.94,8-14,17.55-15.16,29.45-.81,7.95-1.92,15.91-3.5,23.75-2.23,11-11.1,17.76-20.56,16.21-10.29-1.69-16.6-10.88-15-22.28,1.48-10.57,2.84-21.17,5-31.61a69.33,69.33,0,0,1,19.51-36.56c10-9.8,20.39-19.22,30.32-29.11,11.34-11.3,12.54-23,4-33.92-7.95-10.13-20.25-11.91-33.23-4.3-43.91,25.76-79.24,60.77-108.66,102-10.66,14.91-14.42,32.14-14.51,50.18-.17,31.37,0,62.74-.1,94.11,0,14.31-6.05,21.69-17.53,21.91-12.08.23-18.38-7.19-18.45-22-.09-17,0-34,0-51.06Z"/><path class="cls-1" d="M2457.6,301.42c0,9.71-8.2,18.2-17.63,18.21s-17.66-8.28-17.64-18.07c0-10.12,7.69-18.06,17.49-18.09A18,18,0,0,1,2457.6,301.42Z"/><path class="cls-1" d="M2273.87,1268.2c-.34,30.88-11.79,57.91-29.56,82.52-20.48,28.35-46.81,50.34-76.2,68.86-6,3.81-12.05,7.69-18.59,10.67-14.59,6.66-29.58,7.39-43.61-.1-42.86-22.87-79.63-52.85-104.91-95.11-7.48-12.51-6.66-25.66,1.61-37.86,8.55-12.61,21.23-16.14,35.58-14.92,11.1.94,20.46,6.08,28.7,13.35,7.16,6.33,15.69,9.45,25,10.93,13,2.09,24.5-1.94,35.36-8.63,10.23-6.3,20.95-11.06,33.31-10.94,7.25.08,11.85,3.75,12,9.82.14,5.73-4.26,10.18-11,10.44-8.75.34-16.41,3.31-23.73,8-27.74,17.71-57.85,16.19-84-4.21-6.73-5.26-13.67-9.2-22.62-8.45-12.44,1-18.53,12.49-12.17,23.25,13.82,23.35,32.59,42.2,53.76,58.85a343.06,343.06,0,0,0,35.93,24.43c12.82,7.69,25.48,7.5,38.35-.32,27.2-16.51,52.53-35.23,73-59.88,16.88-20.32,29.24-42.87,33-69.44a87.26,87.26,0,0,0-3.89-41.23c-11.2-32.47-47.91-47.61-80.69-33.5a146,146,0,0,0-16.53,8.55c-16.35,9.65-32.83,9.73-49.15-.17-8.24-5-16.72-9.54-26.14-11.77-35.84-8.47-67.36,12.41-73.72,48.7-.36,2-.58,4.11-1,6.12-1.35,6-5.8,9.24-11.42,8.48a10,10,0,0,1-8.58-11.38c3.06-26.26,14.23-47.9,37.32-62,30.22-18.45,60.23-15,89.83,1.89,1.63.93,3.24,1.9,4.85,2.88,9.47,5.73,18.81,5.53,28.18-.34,17.94-11.23,37.15-18.74,58.7-16.28,42.24,4.82,70.33,35.37,73,78.64C2274.05,1261.42,2273.87,1264.82,2273.87,1268.2Z"/><path class="cls-1" d="M2218.91,1596.78c-7.53,0-15.06,0-22.59,0-6.75-.06-11.2-4.09-11.18-10,0-5.5,4.47-9.88,10.84-10,13.55-.18,27.11,0,40.66-.08,8,0,9.75-1.39,10.54-9.16,2.16-21.16,11.87-37.72,29.47-49.71,10.42-7.09,20.64-14.48,31.09-21.53a49.11,49.11,0,0,0,19.81-25.9c11.47-34.13,17-69.35,19.89-105.08.62-7.61-3.57-13.13-10.13-13.88-6.72-.76-11.48,3.65-12.56,11.47-1.84,13.41-3.77,26.81-5.65,40.22-2,14.61-10.55,25.08-21.79,33.67a9.83,9.83,0,0,1-13.32-1.44,10,10,0,0,1-.1-13.4,39.74,39.74,0,0,1,4.65-4.1c6-5.05,9.77-11.24,10.77-19.17,1.67-13.25,3.74-26.45,5.4-39.71,2.07-16.6,16.33-28.58,33.45-27.82a31.13,31.13,0,0,1,29.45,30.75c0,15.07-2,30-4.3,44.91-3.85,25-9.22,49.53-17.77,73.36-4.9,13.62-13.52,24.14-25.41,32.22-10.58,7.19-20.93,14.72-31.56,21.85-12.92,8.66-20,20.62-21.25,36.07-.66,8.27-3.8,15.3-10.31,20.59a24.12,24.12,0,0,1-16.08,5.86C2233.59,1596.67,2226.25,1596.78,2218.91,1596.78Z"/><path class="cls-1" d="M2036.33,1596.78c-6.78,0-13.56,0-20.34,0-14.54,0-24.85-8.21-27.33-22.57-2.36-13.59-7.68-25.54-17.3-35.43-5.94-6.11-13.31-10.44-20.19-15.37-5.66-4.05-11.44-7.94-17.24-11.8-13.85-9.23-21.79-22.56-26.65-38.07a436.54,436.54,0,0,1-19.53-107.46c-1-18.56,11.1-33.43,28.07-34.81,18.44-1.51,32.82,10.85,35.1,29.87,1.47,12.33,3.41,24.61,4.92,36.93a29.19,29.19,0,0,0,11.28,20.11,33,33,0,0,1,3.82,3.35,10.5,10.5,0,0,1,.39,13.9,10,10,0,0,1-13.36,1.33c-11.26-8.33-19.58-18.68-21.6-33.1q-2.82-20.12-5.69-40.23c-1.15-8.18-6.1-12.78-12.83-11.92-6.41.83-10.27,5.47-9.87,12.82a422.67,422.67,0,0,0,8.28,63.19,345.34,345.34,0,0,0,12.07,44.64,45.68,45.68,0,0,0,17.46,22.95q13.7,9.48,27.37,19c18.61,13,30.46,30.39,34.49,52.91,1.51,8.45,3.08,9.72,11.51,9.73,13.37,0,26.73,0,40.1,0,5,0,8.66,2.49,10.35,7.26,1.51,4.25-.07,7.75-3.3,10.6a9.62,9.62,0,0,1-6.82,2.14C2051.77,1596.74,2044.05,1596.77,2036.33,1596.78Z"/><path class="cls-1" d="M2091.62,1555.72c0-7.72-.17-15.44,0-23.16.36-13.6-4.08-25.31-12.61-35.89-16.19-20.09-34.2-38.05-56.66-51.14-7.21-4.2-14.41-3.34-18.83,2.23-4.74,6-4,13,2.17,19.16a126.74,126.74,0,0,0,10.18,9.77c11.67,9.32,18.2,21.28,19.54,36.15.32,3.55,1.16,7.07,1.34,10.63a10.33,10.33,0,0,1-9,11.07c-5,.56-9.79-3-10.92-8.59-1-5-1.67-10-2.3-15.06a22.8,22.8,0,0,0-7.13-14.33q-8.06-7.51-16-15.18c-12.83-12.45-14.85-30.92-4.93-44.62,10.49-14.48,28.5-18.46,44.66-9.61a174.62,174.62,0,0,1,31.2,22.24,271.09,271.09,0,0,1,32.84,34.9c10.84,13.58,16.74,29,17,46.28.27,18.06.13,36.14,0,54.21,0,7-3.34,11.31-8.74,11.93-6.9.8-11.67-3.46-11.82-11.07-.19-10-.05-20-.05-29.92Z"/><path class="cls-1" d="M2143.49,1555.52c0-10.92-.7-21.89.17-32.73,1.25-15.47,8.37-28.68,18.06-40.66,16-19.74,34.06-37.12,55.45-51,11.41-7.39,23.18-11.7,36.7-6.17a33.56,33.56,0,0,1,11.17,55.09c-5.17,5.22-10.4,10.37-15.87,15.26a24.7,24.7,0,0,0-8.55,16.61c-.46,4.49-1.08,9-2,13.4-1.26,6.23-6.27,10-11.61,9.15-5.8-1-9.36-6.14-8.46-12.57.83-6,1.6-12,2.8-17.83a39.12,39.12,0,0,1,11-20.63c5.65-5.52,11.5-10.84,17.1-16.42,6.4-6.37,7.08-13,2.24-19.13-4.48-5.72-11.42-6.72-18.74-2.43-24.77,14.53-44.7,34.28-61.3,57.51-6,8.41-8.13,18.13-8.18,28.31-.1,17.69,0,35.39-.06,53.08,0,8.08-3.41,12.24-9.89,12.37-6.81.13-10.37-4.06-10.41-12.43-.05-9.6,0-19.2,0-28.8Z"/><path class="cls-1" d="M2209.18,1296.91a10.37,10.37,0,0,1-9.95,10.28,10.21,10.21,0,0,1-9.95-10.2,10,10,0,0,1,9.87-10.2A10.15,10.15,0,0,1,2209.18,1296.91Z"/><path class="cls-1" d="M2514.76,1424.78l-39.52-4.23v52.56H2440V1339.4h35.28v46l39.34,4.06-.35-49.57,35.28-.71.88,135.31-35.28-.18Z"/><path class="cls-1" d="M2624.94,1473.29l-.18-8.29a36.79,36.79,0,0,1-11.82,6.53,43.64,43.64,0,0,1-14.46,2.47,38.68,38.68,0,0,1-21.53-6.44,46.37,46.37,0,0,1-15.7-17.38,50.24,50.24,0,0,1-5.82-24,49.45,49.45,0,0,1,6-24.17,44.62,44.62,0,0,1,39.69-23.46,36.46,36.46,0,0,1,13,2.3,24.84,24.84,0,0,1,9.79,6.35v-7.59h29.28l4.06,93.67Zm-11.65-31.22a20.1,20.1,0,0,0,6.71-7.5,21.09,21.09,0,0,0,2.47-10,16.72,16.72,0,0,0-4.68-12.08,15.64,15.64,0,0,0-11.73-4.85,19.18,19.18,0,0,0-13.58,5.47,17.3,17.3,0,0,0-5.82,13,17.78,17.78,0,0,0,2.55,9,20.26,20.26,0,0,0,6.71,7,15.16,15.16,0,0,0,17.37-.17Z"/><path class="cls-1" d="M2749.12,1386.41q7.59,8.73,7.23,24.61l-1.06,62.27H2723l.18-41.45q0-12.88-3.44-18.35a11.24,11.24,0,0,0-10.14-5.47,14.62,14.62,0,0,0-9.44,3.18q-4,3.16-4.85,10.76l.17,51.33h-31.92v-94l31.57-.53v9a62.69,62.69,0,0,1,15.7-7.24,58.81,58.81,0,0,1,17.64-2.82Q2741.53,1377.68,2749.12,1386.41Z"/><path class="cls-1" d="M2863.71,1333.93v139.71h-34.4v-9.88a42.9,42.9,0,0,1-13.76,7.77,49.17,49.17,0,0,1-16.76,3,32.11,32.11,0,0,1-19.4-6.62,45.87,45.87,0,0,1-14.29-17.9,56.62,56.62,0,0,1-5.29-24.35,51.7,51.7,0,0,1,5.47-23.11,51.17,51.17,0,0,1,14.37-18.08q8.91-7,18.61-7.14,18.52-.52,30.52,8.46l-.35-54.68Zm-44.63,107.87a21.47,21.47,0,0,0,7.14-7.23,17.32,17.32,0,0,0-3-22.23,18.55,18.55,0,0,0-13.31-5.55,17.57,17.57,0,0,0-12.79,5.55,18.08,18.08,0,0,0-3,22.32,20.45,20.45,0,0,0,6.88,7.14,16.4,16.4,0,0,0,8.91,2.74A17.11,17.11,0,0,0,2819.08,1441.8Z"/><path class="cls-1" d="M2936.88,1411.73a83.43,83.43,0,0,0-14.11-6.44,38,38,0,0,0-11.82-2,20.83,20.83,0,0,0-8.73,1.59c-2.3,1.06-3.44,2.41-3.44,4.05q0,4.41,12.34,4.41,18,0,28.05,7.06t10.06,19.58a29,29,0,0,1-5.91,17.55,41.47,41.47,0,0,1-15.88,12.79,49.79,49.79,0,0,1-21.78,4.76,58.26,58.26,0,0,1-22.23-4.32,42.8,42.8,0,0,1-16.76-11.55l17.82-20.11a30.77,30.77,0,0,0,9.7,5.73,31.76,31.76,0,0,0,11.11,2,21,21,0,0,0,9.26-1.85q3.8-1.86,3.8-4.5c0-1.41-.83-2.41-2.47-3s-4.41-.88-8.29-.88a21,21,0,0,1-3.18.17,36.5,36.5,0,0,1-16.67-4,34,34,0,0,1-12.61-10.68,24.06,24.06,0,0,1,.7-29.63,39.36,39.36,0,0,1,14.65-11.38,45,45,0,0,1,19.4-4.32,55.73,55.73,0,0,1,20.55,4.06,65.59,65.59,0,0,1,18.79,11.29Z"/><path class="cls-1" d="M3025.61,1467.12a50.27,50.27,0,0,1-18.08-18.44,48.73,48.73,0,0,1-6.62-24.61q0-14.46,7.5-25a48.67,48.67,0,0,1,18.87-16.06,52.76,52.76,0,0,1,23-5.47q15.18,0,26.46,5.74a41.49,41.49,0,0,1,17.47,16.31q6.17,10.59,6.17,24.7a50,50,0,0,1-6.53,25.31,47.57,47.57,0,0,1-17.9,17.91,49.64,49.64,0,0,1-25.14,6.53A48.15,48.15,0,0,1,3025.61,1467.12Zm38.54-27.88q4.84-4.76,4.85-13a20.22,20.22,0,0,0-4.58-13.41q-4.59-5.46-13.59-5.46a17.65,17.65,0,0,0-13.14,5.29,17.89,17.89,0,0,0-5.2,13.05,17.37,17.37,0,0,0,5.46,13.14,19.42,19.42,0,0,0,13.94,5.21A16.78,16.78,0,0,0,3064.15,1439.24Z"/><path class="cls-1" d="M3156.67,1366.83c-1.59,2.89-2.56,6.91-2.91,12.09l27.17.35L3179,1411l-24-.35,2.65,62.27h-36.16l-.71-62.8-18.17-.18-3.35-31.75,21.17.35-.18-12.17q-.7-17.82,10-26.64t28.49-8.82a53.08,53.08,0,0,1,17,2.65,36.06,36.06,0,0,1,13.32,7.76l-1.23,25.05q-.54-.35-5.65-3.26a25,25,0,0,0-12.52-2.91,19.52,19.52,0,0,0-6.18.88A11.62,11.62,0,0,0,3156.67,1366.83Z"/><path class="cls-1" d="M3315.52,1424.78l-39.52-4.23v52.56h-35.28V1339.4H3276v46l39.34,4.06-.35-49.57,35.28-.71.88,135.31-35.28-.18Z"/><path class="cls-1" d="M3380.89,1467.12a50.35,50.35,0,0,1-18.08-18.44,48.72,48.72,0,0,1-6.61-24.61q0-14.46,7.49-25a48.7,48.7,0,0,1,18.88-16.06,52.73,52.73,0,0,1,23-5.47q15.16,0,26.46,5.74a41.52,41.52,0,0,1,17.46,16.31q6.18,10.59,6.18,24.7a50,50,0,0,1-6.53,25.31,47.53,47.53,0,0,1-17.91,17.91,49.6,49.6,0,0,1-25.13,6.53A48.18,48.18,0,0,1,3380.89,1467.12Zm38.55-27.88q4.84-4.76,4.85-13a20.17,20.17,0,0,0-4.59-13.41q-4.59-5.46-13.58-5.46a17.62,17.62,0,0,0-13.14,5.29,17.9,17.9,0,0,0-5.21,13.05,17.34,17.34,0,0,0,5.47,13.14,19.39,19.39,0,0,0,13.94,5.21A16.79,16.79,0,0,0,3419.44,1439.24Z"/><path class="cls-1" d="M3545.93,1390.47q9.71,12.43,9.7,31.66a61.06,61.06,0,0,1-5,25,43.13,43.13,0,0,1-14.21,18,35.52,35.52,0,0,1-21.34,6.61q-13,0-21.7-4.76l1.59,48.51H3460V1379.09l28.76.18,1.23,9.35a51,51,0,0,1,14.47-8.29,39.73,39.73,0,0,1,15.17-3Q3536.22,1378,3545.93,1390.47Zm-23,47.89q4.32-4.58,4.32-12.52,0-8.29-4.76-13.32t-12.53-5a17.6,17.6,0,0,0-12.61,4.77,15.82,15.82,0,0,0-5,12,17.66,17.66,0,0,0,5.74,13.14,18.73,18.73,0,0,0,13.49,5.56A14.91,14.91,0,0,0,3522.91,1438.36Z"/><path class="cls-1" d="M3638.86,1391.44q12.16,12.88,12.17,35.1c0,2.47-.06,4.36-.18,5.65l-62.44.7a25.86,25.86,0,0,0,5.91,9.62,13.51,13.51,0,0,0,8.91,4.14q14.1,1.06,20.46-8.29l25.22,7.24a34,34,0,0,1-8.82,14.9,46,46,0,0,1-15.61,10.32,49.33,49.33,0,0,1-18.79,3.71,27.85,27.85,0,0,1-3.52-.18,44.92,44.92,0,0,1-22.49-7.94,51,51,0,0,1-16.41-18.52,52.55,52.55,0,0,1-6.09-25.05,34.48,34.48,0,0,1,.18-4.06,39.59,39.59,0,0,1,7.15-20.81,43.55,43.55,0,0,1,16.93-14.29,52.25,52.25,0,0,1,23.2-5.12Q3626.69,1378.56,3638.86,1391.44Zm-50.28,19.93,29.82.18a12,12,0,0,0-4.15-7.94,13.8,13.8,0,0,0-7.85-3.17Q3593.35,1399.38,3588.58,1411.37Z"/><path class="cls-1" d="M2507.06,1595.33l-2.22-47.6-10.18,47.6h-21.2l-11.77-44.52-.53,43.35-21.2.11v-80.35l15.27.95,16.21.53,11.88,42.62,8-43.25h33.18l3.71,79.82Z"/><path class="cls-1" d="M2604.81,1577.41l-26.93-.1-6.78,16.85-21.2-8.69,34.77-70.92,21.2.22,24.91,75.26-21.2,5.09Zm-5.73-21.2-5.09-19.08-7.63,19Z"/><path class="cls-1" d="M2702.74,1574.13v21.2h-49.82v-80.78h21.2v59.58Z"/><path class="cls-1" d="M2779.52,1577.41l-26.93-.1-6.78,16.85-21.2-8.69,34.77-70.92,21.2.22,24.91,75.26-21.2,5.09Zm-5.72-21.2-5.09-19.08-7.63,19Z"/><path class="cls-1" d="M2940.25,1524l-27.66,72.82h-25.66l-8.48-39.54-8.58,37.42h-26.61l-22.47-73.14,23.64-7.42,12.72,45.58,12.4-43.67h19.5l10.07,47.28,16.43-51.2Z"/><path class="cls-1" d="M2962.47,1514.55H2983l-.63,80.57h-20.57Z"/><polygon class="cls-2" points="2775.69 1850.46 1850.46 1850.46 1850.46 2775.69 2775.69 2775.69 3700.92 2775.69 3700.92 1850.46 2775.69 1850.46"/><path class="cls-1" d="M2002.92,2256.15l-57.53-6.16v76.54H1894V2131.84h51.37v67l57.27,5.9-.51-72.17,51.37-1,1.28,197-51.37-.25Z"/><path class="cls-1" d="M2163.34,2326.79l-.25-12.08a53.46,53.46,0,0,1-17.21,9.51,63.24,63.24,0,0,1-21.06,3.59,56.27,56.27,0,0,1-31.34-9.37,67.3,67.3,0,0,1-22.86-25.3,73.19,73.19,0,0,1-8.47-34.93,72,72,0,0,1,8.73-35.19,65,65,0,0,1,57.79-34.16,53.24,53.24,0,0,1,18.88,3.34,36.1,36.1,0,0,1,14.25,9.25v-11h42.64l5.91,136.39Zm-17-45.47a29.25,29.25,0,0,0,9.76-10.91,30.61,30.61,0,0,0,3.6-14.51,24.37,24.37,0,0,0-6.81-17.6,22.76,22.76,0,0,0-17.08-7.06,28,28,0,0,0-19.77,8,25.21,25.21,0,0,0-8.48,19,25.85,25.85,0,0,0,3.72,13.1,29.59,29.59,0,0,0,9.76,10.27,22.1,22.1,0,0,0,25.3-.26Z"/><path class="cls-1" d="M2344.16,2200.29q11,12.71,10.53,35.83l-1.54,90.67h-47l.25-60.36q0-18.75-5-26.72t-14.77-8a21.27,21.27,0,0,0-13.74,4.63q-5.79,4.62-7.07,15.66l.26,74.75h-46.49v-136.9l46-.77v13.1a91,91,0,0,1,22.86-10.54,85.77,85.77,0,0,1,25.68-4.1Q2333.12,2187.58,2344.16,2200.29Z"/><path class="cls-1" d="M2511,2123.88V2327.3h-50.08v-14.38a62.66,62.66,0,0,1-20,11.3,71.33,71.33,0,0,1-24.4,4.36q-15.16,0-28.26-9.63t-20.8-26.07a82.38,82.38,0,0,1-7.71-35.44,75.42,75.42,0,0,1,8-33.65,74.65,74.65,0,0,1,20.94-26.33q13-10.14,27.09-10.4,27-.76,44.44,12.33l-.51-79.62Zm-65,157.06a31.36,31.36,0,0,0,10.4-10.53,25.61,25.61,0,0,0,4-13.49q0-10.78-8.35-18.88a27,27,0,0,0-19.39-8.09q-10.55,0-18.62,8.09a26.32,26.32,0,0,0-4.37,32.5,29.78,29.78,0,0,0,10,10.4,23.87,23.87,0,0,0,13,4A24.93,24.93,0,0,0,2446,2280.94Z"/><path class="cls-1" d="M2617.54,2237.15a121.31,121.31,0,0,0-20.55-9.38,55.34,55.34,0,0,0-17.21-2.95,30.43,30.43,0,0,0-12.71,2.31q-5,2.31-5,5.91,0,6.42,18,6.42,26.21,0,40.84,10.27t14.64,28.51a42.21,42.21,0,0,1-8.6,25.56,60.42,60.42,0,0,1-23.12,18.62,72.67,72.67,0,0,1-31.72,6.93,84.86,84.86,0,0,1-32.36-6.29q-15.42-6.29-24.4-16.82l25.94-29.28a45,45,0,0,0,14.12,8.34,46,46,0,0,0,16.19,3,30.5,30.5,0,0,0,13.48-2.7q5.52-2.7,5.52-6.55c0-2.05-1.2-3.51-3.59-4.36s-6.42-1.29-12.07-1.29a30.7,30.7,0,0,1-4.63.26,53.1,53.1,0,0,1-24.27-5.78,49.33,49.33,0,0,1-18.36-15.54,35.6,35.6,0,0,1-6.94-21.06q0-11.82,8-22.09a57.32,57.32,0,0,1,21.32-16.57,65.53,65.53,0,0,1,28.25-6.29,81.31,81.31,0,0,1,29.93,5.91,96,96,0,0,1,27.35,16.44Z"/><path class="cls-1" d="M2746.73,2317.8A73.34,73.34,0,0,1,2720.4,2291a71,71,0,0,1-9.63-35.83q0-21.06,10.92-36.48a70.89,70.89,0,0,1,27.48-23.37,76.79,76.79,0,0,1,33.52-8q22.08,0,38.53,8.35a60.36,60.36,0,0,1,25.42,23.75q9,15.42,9,36a72.81,72.81,0,0,1-9.5,36.86,69.34,69.34,0,0,1-26.07,26.07,72.2,72.2,0,0,1-36.6,9.5A70.11,70.11,0,0,1,2746.73,2317.8Zm56.12-40.59q7.07-6.93,7.06-19,0-11.57-6.67-19.52t-19.78-8q-11.57,0-19.14,7.7a26.06,26.06,0,0,0-7.57,19,25.28,25.28,0,0,0,8,19.13q8,7.59,20.29,7.58Q2795.79,2284.15,2802.85,2277.21Z"/><path class="cls-1" d="M2937.56,2171.78q-3.46,6.3-4.24,17.59l39.56.52-2.83,46.23-34.93-.51,3.85,90.66h-52.65l-1-91.44-26.45-.25-4.88-46.23,30.82.51-.26-17.72q-1-25.93,14.52-38.79t41.48-12.84a77.35,77.35,0,0,1,24.78,3.85,52.46,52.46,0,0,1,19.39,11.31l-1.79,36.47q-.78-.51-8.22-4.75t-18.24-4.24a28.63,28.63,0,0,0-9,1.28A16.94,16.94,0,0,0,2937.56,2171.78Z"/><path class="cls-1" d="M3168.85,2256.15l-57.54-6.16v76.54H3060V2131.84h51.36v67l57.28,5.9-.51-72.17,51.37-1,1.28,197-51.37-.25Z"/><path class="cls-1" d="M3264,2317.8a73.31,73.31,0,0,1-26.32-26.84,71,71,0,0,1-9.64-35.83q0-21.06,10.92-36.48a71,71,0,0,1,27.48-23.37,76.82,76.82,0,0,1,33.52-8q22.1,0,38.53,8.35a60.44,60.44,0,0,1,25.43,23.75q9,15.42,9,36a72.81,72.81,0,0,1-9.5,36.86,69.27,69.27,0,0,1-26.07,26.07,72.18,72.18,0,0,1-36.6,9.5A70.14,70.14,0,0,1,3264,2317.8Zm56.12-40.59q7.07-6.93,7.07-19,0-11.57-6.68-19.52t-19.78-8q-11.55,0-19.13,7.7a26,26,0,0,0-7.58,19,25.28,25.28,0,0,0,8,19.13q8,7.59,20.29,7.58Q3313.08,2284.15,3320.15,2277.21Z"/><path class="cls-1" d="M3504.33,2206.2q14.13,18.11,14.13,46.1a88.88,88.88,0,0,1-7.32,36.34q-7.32,16.58-20.68,26.2t-31.08,9.63q-19,0-31.59-6.93l2.31,70.63h-50.85V2189.63l41.86.26,1.8,13.61a74.41,74.41,0,0,1,21.06-12.07q12.08-4.62,22.09-4.37Q3490.21,2188.1,3504.33,2206.2Zm-33.52,69.73q6.3-6.67,6.3-18.24,0-12.06-6.94-19.39t-18.23-7.32q-11.05,0-18.37,6.94a23,23,0,0,0-7.32,17.46,25.77,25.77,0,0,0,8.35,19.14,27.31,27.31,0,0,0,19.65,8.09Q3464.51,2282.61,3470.81,2275.93Z"/><path class="cls-1" d="M3639.64,2207.61q17.71,18.75,17.72,51.11,0,5.4-.26,8.22l-90.92,1a37.72,37.72,0,0,0,8.6,14,19.78,19.78,0,0,0,13,6q20.53,1.55,29.79-12.07l36.73,10.53a49.42,49.42,0,0,1-12.84,21.7,67.17,67.17,0,0,1-22.73,15,71.77,71.77,0,0,1-27.36,5.39,41.17,41.17,0,0,1-5.14-.25,65.49,65.49,0,0,1-32.74-11.56,74.26,74.26,0,0,1-23.89-27,76.56,76.56,0,0,1-8.86-36.47,49.06,49.06,0,0,1,.26-5.91,57.67,57.67,0,0,1,10.4-30.31,63.64,63.64,0,0,1,24.65-20.8,76,76,0,0,1,33.78-7.45Q3621.91,2188.86,3639.64,2207.61Zm-73.2,29,43.4.26q-1-7.44-6-11.56a20.21,20.21,0,0,0-11.43-4.62Q3573.36,2219.17,3566.44,2236.63Z"/><path class="cls-1" d="M1991.72,2504.48l-3.24-69.3-14.82,69.3h-30.87l-17.13-64.83-.77,63.13-30.87.15v-117l22.22,1.39,23.62.77,17.29,62.05,11.73-63h48.3l5.41,116.22Z"/><path class="cls-1" d="M2134,2478.39l-39.21-.15-9.87,24.54-30.87-12.66,50.62-103.25,30.87.31,36.27,109.58-30.87,7.41Zm-8.34-30.87-7.41-27.78-11.11,27.63Z"/><path class="cls-1" d="M2276.63,2473.61v30.87h-72.54V2386.87H2235v86.74Z"/><path class="cls-1" d="M2388.42,2478.39l-39.2-.15-9.88,24.54-30.87-12.66,50.63-103.25,30.87.31,36.27,109.58-30.87,7.41Zm-8.33-30.87-7.41-27.78-11.11,27.63Z"/><path class="cls-1" d="M2622.45,2400.6l-40.28,106h-37.35l-12.35-57.57-12.5,54.48h-38.74l-32.72-106.5,34.42-10.8,18.52,66.37,18.06-63.59h28.39l14.67,68.83,23.92-74.54Z"/><path class="cls-1" d="M2654.8,2386.87h29.94l-.92,117.3h-29.94Z"/></g></g></svg>