<svg xmlns="http://www.w3.org/2000/svg" viewBox="0 0 1850.46 925.23"><defs><style>.cls-1{fill:none;}</style></defs><g id="Layer_2" data-name="Layer 2"><g id="Layer_1-2" data-name="Layer 1"><polygon class="cls-1" points="925.23 0 0 0 0 925.23 925.23 925.23 1850.46 925.23 1850.46 0 925.23 0"/><path d="M152.46,405.69l-57.53-6.16v76.54H43.56V281.38H94.93v67l57.27,5.9-.51-72.17,51.37-1,1.28,197L153,477.87Z"/><path d="M312.89,476.33l-.26-12.08a53.27,53.27,0,0,1-17.21,9.51,63.24,63.24,0,0,1-21.06,3.59A56.27,56.27,0,0,1,243,468a67.38,67.38,0,0,1-22.86-25.3,73.19,73.19,0,0,1-8.47-34.93,72,72,0,0,1,8.73-35.19,65,65,0,0,1,57.79-34.16,53.24,53.24,0,0,1,18.88,3.34A36.1,36.1,0,0,1,311.34,351V339.94H354l5.91,136.39Zm-17-45.47A29.25,29.25,0,0,0,305.69,420a30.61,30.61,0,0,0,3.6-14.51,24.37,24.37,0,0,0-6.81-17.6,22.76,22.76,0,0,0-17.08-7.06,28,28,0,0,0-19.77,8,25.21,25.21,0,0,0-8.48,19,25.85,25.85,0,0,0,3.72,13.1,29.59,29.59,0,0,0,9.76,10.27,22.1,22.1,0,0,0,25.3-.26Z"/><path d="M493.7,349.83q11,12.72,10.53,35.83l-1.54,90.67h-47l.25-60.36q0-18.75-5-26.71t-14.77-8a21.27,21.27,0,0,0-13.74,4.63q-5.79,4.62-7.07,15.66l.26,74.75H369.13V339.43l46-.77v13.1A90.68,90.68,0,0,1,438,341.23a85.47,85.47,0,0,1,25.68-4.11Q482.66,337.12,493.7,349.83Z"/><path d="M660.54,273.42V476.84H610.46V462.46a62.66,62.66,0,0,1-20,11.3,71.33,71.33,0,0,1-24.4,4.36q-15.16,0-28.26-9.63T517,442.42A82.38,82.38,0,0,1,509.26,407a75.3,75.3,0,0,1,8-33.65A74.52,74.52,0,0,1,538.16,347q13-10.14,27.09-10.4,27-.77,44.44,12.33l-.51-79.62Zm-65,157.06A31.36,31.36,0,0,0,606,420a25.61,25.61,0,0,0,4-13.49q0-10.79-8.35-18.87a27,27,0,0,0-19.39-8.09q-10.55,0-18.62,8.09a26.3,26.3,0,0,0-4.37,32.49,29.78,29.78,0,0,0,10,10.4,23.87,23.87,0,0,0,13,4A24.93,24.93,0,0,0,595.56,430.48Z"/><path d="M767.08,386.69a121.31,121.31,0,0,0-20.55-9.38,55.33,55.33,0,0,0-17.2-2.95,30.45,30.45,0,0,0-12.72,2.31q-5,2.31-5,5.91,0,6.42,18,6.42,26.2,0,40.84,10.27t14.64,28.51a42.21,42.21,0,0,1-8.6,25.56A60.42,60.42,0,0,1,753.34,472a72.67,72.67,0,0,1-31.72,6.93,84.67,84.67,0,0,1-32.36-6.29q-15.42-6.28-24.4-16.82L690.8,426.5a45.22,45.22,0,0,0,14.12,8.35,46.18,46.18,0,0,0,16.19,2.95,30.5,30.5,0,0,0,13.48-2.7q5.52-2.7,5.52-6.55,0-3.07-3.59-4.36t-12.07-1.29a30.7,30.7,0,0,1-4.63.26,53.1,53.1,0,0,1-24.27-5.78,49.33,49.33,0,0,1-18.36-15.54,35.6,35.6,0,0,1-6.94-21.06q0-11.8,8-22.09a57.32,57.32,0,0,1,21.32-16.57,65.53,65.53,0,0,1,28.25-6.29,81.31,81.31,0,0,1,29.93,5.91,96,96,0,0,1,27.35,16.44Z"/><path d="M896.27,467.34a73.41,73.41,0,0,1-26.33-26.84,71,71,0,0,1-9.63-35.83q0-21.06,10.92-36.48a70.89,70.89,0,0,1,27.48-23.37,76.79,76.79,0,0,1,33.52-8q22.08,0,38.53,8.35A60.36,60.36,0,0,1,996.18,369q9,15.42,9,36a72.79,72.79,0,0,1-9.5,36.86,69.34,69.34,0,0,1-26.07,26.07,72.18,72.18,0,0,1-36.6,9.5A70.11,70.11,0,0,1,896.27,467.34Zm56.12-40.59q7.07-6.93,7.06-19,0-11.56-6.67-19.52t-19.78-8q-11.57,0-19.14,7.7a26.06,26.06,0,0,0-7.57,19,25.28,25.28,0,0,0,8,19.13q8,7.59,20.29,7.58Q945.33,433.69,952.39,426.75Z"/><path d="M1087.1,321.32q-3.46,6.3-4.24,17.59l39.56.52-2.83,46.23-34.93-.51,3.85,90.66h-52.65l-1-91.43-26.45-.26-4.88-46.23,30.82.51-.26-17.72q-1-25.93,14.52-38.79t41.48-12.84a77.35,77.35,0,0,1,24.78,3.85,52.46,52.46,0,0,1,19.39,11.31l-1.79,36.47q-.78-.51-8.22-4.75T1106,311.69a28.63,28.63,0,0,0-9,1.28A17,17,0,0,0,1087.1,321.32Z"/><path d="M1318.39,405.69l-57.54-6.16v76.54h-51.36V281.38h51.36v67l57.28,5.9-.51-72.17,51.37-1,1.28,197-51.37-.25Z"/><path d="M1413.57,467.34a73.31,73.31,0,0,1-26.32-26.84,71,71,0,0,1-9.64-35.83q0-21.06,10.92-36.48A71,71,0,0,1,1416,344.82a76.82,76.82,0,0,1,33.52-8q22.1,0,38.53,8.35A60.44,60.44,0,0,1,1513.49,369q9,15.42,9,36a72.79,72.79,0,0,1-9.5,36.86,69.27,69.27,0,0,1-26.07,26.07,72.18,72.18,0,0,1-36.6,9.5A70.14,70.14,0,0,1,1413.57,467.34Zm56.12-40.59q7.07-6.93,7.07-19,0-11.56-6.68-19.52t-19.78-8q-11.55,0-19.13,7.7a26,26,0,0,0-7.58,19,25.28,25.28,0,0,0,8,19.13q8,7.59,20.29,7.58Q1462.63,433.69,1469.69,426.75Z"/><path d="M1653.87,355.74q14.13,18.11,14.13,46.1a88.88,88.88,0,0,1-7.32,36.34q-7.32,16.57-20.68,26.2T1608.93,474q-19,0-31.6-6.93l2.31,70.63h-50.85V339.17l41.87.26,1.79,13.61A74.41,74.41,0,0,1,1593.51,341q12.08-4.62,22.09-4.37Q1639.75,337.64,1653.87,355.74Zm-33.52,69.73q6.3-6.68,6.3-18.24,0-12.06-6.94-19.39t-18.23-7.32q-11.06,0-18.37,6.94a23,23,0,0,0-7.32,17.46,25.77,25.77,0,0,0,8.35,19.14,27.31,27.31,0,0,0,19.65,8.09Q1614.05,432.15,1620.35,425.47Z"/><path d="M1789.18,357.15q17.71,18.75,17.72,51.11,0,5.4-.26,8.22l-90.92,1a37.72,37.72,0,0,0,8.6,14,19.78,19.78,0,0,0,13,6q20.54,1.54,29.79-12.07L1803.82,436A49.42,49.42,0,0,1,1791,457.7a67.17,67.17,0,0,1-22.73,15,71.77,71.77,0,0,1-27.36,5.39,41.17,41.17,0,0,1-5.14-.25A65.49,65.49,0,0,1,1703,466.31a74.26,74.26,0,0,1-23.89-27,76.53,76.53,0,0,1-8.86-36.47,49.06,49.06,0,0,1,.26-5.91,57.67,57.67,0,0,1,10.4-30.31,63.6,63.6,0,0,1,24.66-20.8,75.94,75.94,0,0,1,33.77-7.45Q1771.45,338.4,1789.18,357.15Zm-73.2,29,43.4.26q-1-7.44-6-11.56a20.21,20.21,0,0,0-11.43-4.62Q1722.92,368.71,1716,386.17Z"/><path d="M141.26,654,138,584.72,123.2,654H92.33L75.2,589.19l-.77,63.13-30.87.15v-117l22.22,1.39,23.62.77,17.29,62.05,11.73-63h48.3l5.41,116.22Z"/><path d="M283.58,627.93l-39.21-.15-9.87,24.54-30.87-12.66,50.62-103.25,30.87.31L321.39,646.3l-30.87,7.41Zm-8.34-30.87-7.41-27.78-11.11,27.63Z"/><path d="M426.17,623.15V654H353.63V536.41H384.5v86.74Z"/><path d="M538,627.93l-39.2-.15-9.88,24.54L458,639.66l50.63-103.25,30.87.31L575.78,646.3l-30.87,7.41Zm-8.33-30.87-7.41-27.78-11.11,27.63Z"/><path d="M772,550.14l-40.28,106H694.36L682,598.61l-12.5,54.48H630.77l-32.72-106.5,34.42-10.8L651,602.16l18.06-63.59h28.4l14.66,68.84L736,532.86Z"/><path d="M804.34,536.41h29.94l-.92,117.3H803.42Z"/></g></g></svg>