<svg xmlns="http://www.w3.org/2000/svg" viewBox="0 0 925.23 925.23"><defs><style>.cls-1{fill:none;}</style></defs><g id="Layer_2" data-name="Layer 2"><g id="Layer_1-2" data-name="Layer 1"><rect class="cls-1" width="925.23" height="925.23"/><path d="M721.83,250.52c-.61,54.73-20.9,102.66-52.41,146.29-36.29,50.24-83,89.23-135.08,122.06-10.71,6.75-21.35,13.63-33,18.92-25.87,11.8-52.44,13.09-77.32-.18-76-40.54-141.15-93.68-186-168.61-13.27-22.18-11.81-45.49,2.85-67.11,15.17-22.36,37.64-28.62,63.09-26.45,19.66,1.67,36.25,10.77,50.86,23.67,12.7,11.22,27.82,16.74,44.28,19.38,23.08,3.7,43.44-3.45,62.69-15.3C480,292,499,283.57,520.92,283.8c12.86.13,21,6.64,21.26,17.39.24,10.16-7.55,18.05-19.48,18.52-15.52.61-29.09,5.87-42.07,14.15-49.17,31.4-102.55,28.71-148.87-7.46-11.93-9.31-24.24-16.3-40.1-15-22.05,1.85-32.85,22.15-21.58,41.21,24.5,41.4,57.78,74.82,95.3,104.34a608.3,608.3,0,0,0,63.69,43.3c22.72,13.62,45.17,13.29,68-.57,48.2-29.26,93.11-62.45,129.39-106.14,29.92-36,51.82-76,58.55-123.11a154.8,154.8,0,0,0-6.9-73.09C658.26,139.81,593.18,113,535.06,138a258.63,258.63,0,0,0-29.3,15.15c-29,17.1-58.19,17.25-87.12-.31C404,144,389,135.92,372.29,132c-63.54-15-119.4,22-130.69,86.33-.63,3.62-1,7.29-1.83,10.86-2.4,10.6-10.28,16.38-20.25,15-9.49-1.29-16.43-9.72-15.21-20.18,5.43-46.56,25.23-84.91,66.16-109.89,53.56-32.7,106.76-26.6,159.24,3.35,2.9,1.65,5.76,3.37,8.61,5.1,16.78,10.17,33.33,9.8,49.94-.59,31.82-19.91,65.87-33.22,104.06-28.86,74.88,8.54,124.69,62.71,129.46,139.4C722.15,238.5,721.83,244.52,721.83,250.52Z"/><path d="M624.4,833c-13.35,0-26.7.09-40,0-12-.11-19.87-7.25-19.83-17.67,0-9.76,7.93-17.52,19.22-17.68,24-.32,48-.09,72.08-.14,14.1,0,17.28-2.47,18.68-16.25,3.82-37.5,21-66.86,52.24-88.11,18.48-12.58,36.6-25.67,55.12-38.18C798.79,643.52,810.43,628.6,817,609c20.31-60.51,30.13-122.94,35.25-186.28,1.09-13.5-6.33-23.28-18-24.6-11.91-1.36-20.35,6.46-22.25,20.32-3.27,23.78-6.69,47.54-10,71.31-3.62,25.89-18.71,44.45-38.63,59.69-7.42,5.68-17.57,4.13-23.61-2.57a17.66,17.66,0,0,1-.19-23.75c2.37-2.75,5.45-4.89,8.24-7.26,10.6-9,17.34-19.93,19.11-34,3-23.49,6.63-46.89,9.56-70.39,3.67-29.43,29-50.67,59.3-49.32,28.44,1.25,52.13,25.32,52.21,54.5.07,26.72-3.55,53.23-7.62,79.62-6.82,44.24-16.34,87.81-31.51,130.05-8.67,24.14-24,42.79-45,57.11-18.76,12.75-37.11,26.11-56,38.74-22.91,15.35-35.49,36.55-37.68,63.94-1.17,14.67-6.73,27.12-18.27,36.5-8.25,6.71-17.57,10.6-28.5,10.39C650.43,832.81,637.41,833,624.4,833Z"/><path d="M300.73,833c-12,0-24,0-36.05,0-25.78-.08-44.06-14.55-48.46-40-4.18-24.1-13.6-45.29-30.66-62.81-10.54-10.83-23.6-18.52-35.8-27.25-10-7.18-20.28-14.09-30.56-20.93C94.65,665.65,80.58,642,72,614.53A774.52,774.52,0,0,1,37.33,424C35.55,391.14,57,364.77,87.1,362.32c32.68-2.67,58.18,19.23,62.22,53,2.62,21.86,6,43.61,8.73,65.46a51.73,51.73,0,0,0,20,35.65,58,58,0,0,1,6.76,5.94c6.46,7,6.69,18,.7,24.65a17.67,17.67,0,0,1-23.67,2.35c-20-14.77-34.71-33.12-38.3-58.68q-5-35.65-10.09-71.31c-2-14.51-10.81-22.67-22.75-21.13-11.37,1.46-18.2,9.69-17.48,22.72A747.67,747.67,0,0,0,87.88,533c5.6,26.76,12.25,53.28,21.39,79.13a80.85,80.85,0,0,0,31,40.67q24.25,16.83,48.5,33.69c33,23,54,53.88,61.15,93.8,2.68,15,5.46,17.22,20.4,17.24,23.7,0,47.4-.07,71.09.07,8.92.06,15.34,4.41,18.35,12.88,2.68,7.53-.13,13.73-5.85,18.79-3.44,3-7.6,3.82-12.1,3.79C328.09,832.93,314.41,833,300.73,833Z"/><path d="M398.74,760.21c0-13.69-.3-27.37.07-41,.64-24.13-7.24-44.87-22.35-63.63-28.69-35.62-60.63-67.47-100.45-90.67-12.77-7.44-25.54-5.91-33.38,4-8.4,10.59-7,23,3.85,34,5.9,5.9,11.55,12.14,18,17.32,20.7,16.53,32.27,37.73,34.64,64.08.57,6.31,2.06,12.54,2.38,18.85.52,10.28-6.52,18.54-16,19.62-8.81,1-17.34-5.36-19.35-15.22-1.79-8.82-3-17.77-4.09-26.7-1.27-10-5.22-18.48-12.64-25.4Q235.16,642,221.15,628.43c-22.75-22.07-26.32-54.81-8.74-79.09,18.6-25.68,50.53-32.74,79.18-17.05,20,10.94,38.22,24.42,55.31,39.43,21.36,18.76,40.47,39.65,58.21,61.87,19.21,24.06,29.68,51.32,30.14,82,.47,32,.22,64.06.07,96.09-.06,12.45-5.92,20.06-15.5,21.16-12.23,1.42-20.69-6.14-20.95-19.62-.34-17.68-.08-35.37-.08-53Z"/><path d="M490.7,759.85c0-19.34-1.25-38.79.3-58,2.21-27.43,14.83-50.85,32-72.07,28.33-35,60.38-65.82,98.3-90.39,20.22-13.1,41.1-20.74,65.06-10.94,40,16.37,50.29,66.89,19.8,97.67-9.15,9.24-18.44,18.38-28.13,27-8.94,8-14,17.55-15.16,29.45-.8,7.95-1.92,15.91-3.5,23.75-2.23,11-11.1,17.76-20.56,16.21-10.29-1.69-16.6-10.88-15-22.28,1.47-10.57,2.83-21.17,5-31.61a69.33,69.33,0,0,1,19.51-36.56c10-9.8,20.39-19.22,30.32-29.11,11.34-11.3,12.54-23,4-33.92-8-10.13-20.25-11.91-33.23-4.3-43.91,25.76-79.24,60.77-108.66,102-10.65,14.91-14.42,32.14-14.51,50.18-.17,31.37,0,62.74-.1,94.11,0,14.31-6.05,21.69-17.53,21.91-12.08.23-18.38-7.19-18.45-22-.09-17,0-34,0-51.06Z"/><path d="M607.14,301.42c0,9.71-8.2,18.2-17.63,18.21s-17.65-8.28-17.64-18.07c0-10.12,7.69-18.06,17.49-18.09A18,18,0,0,1,607.14,301.42Z"/></g></g></svg>