<svg xmlns="http://www.w3.org/2000/svg" viewBox="0 0 1850.46 925.23"><defs><style>.cls-1{fill:none;}</style></defs><g id="Layer_2" data-name="Layer 2"><g id="Layer_1-2" data-name="Layer 1"><polygon class="cls-1" points="925.23 0 0 0 0 925.23 925.23 925.23 1850.46 925.23 1850.46 0 925.23 0"/><path d="M423.41,343c-.34,30.88-11.79,57.91-29.56,82.52-20.48,28.35-46.81,50.34-76.2,68.86-6,3.81-12,7.69-18.59,10.67-14.59,6.66-29.58,7.39-43.61-.1-42.86-22.87-79.63-52.85-104.91-95.11-7.48-12.51-6.66-25.66,1.61-37.86,8.55-12.61,21.23-16.14,35.58-14.92,11.1.94,20.46,6.08,28.7,13.35,7.16,6.33,15.69,9.45,25,10.93,13,2.09,24.5-1.94,35.36-8.63,10.23-6.3,21-11.06,33.31-10.94,7.25.08,11.85,3.75,12,9.82.14,5.73-4.26,10.18-11,10.44-8.75.34-16.41,3.31-23.73,8-27.74,17.71-57.85,16.19-84-4.21-6.73-5.26-13.67-9.2-22.62-8.45-12.44,1-18.53,12.5-12.17,23.25,13.82,23.35,32.59,42.2,53.76,58.85a343.06,343.06,0,0,0,35.93,24.43c12.82,7.69,25.48,7.5,38.35-.32,27.2-16.51,52.53-35.23,73-59.88,16.88-20.32,29.24-42.87,33-69.44A87.26,87.26,0,0,0,398.75,313c-11.2-32.47-47.91-47.61-80.69-33.5A146,146,0,0,0,301.53,288c-16.35,9.65-32.82,9.73-49.15-.17-8.24-5-16.72-9.54-26.14-11.77-35.84-8.47-67.36,12.41-73.72,48.7-.36,2-.58,4.11-1,6.12-1.35,6-5.8,9.24-11.42,8.48A10,10,0,0,1,131.48,328c3.06-26.26,14.23-47.9,37.32-62,30.22-18.45,60.23-15,89.83,1.89,1.63.93,3.24,1.9,4.85,2.88,9.47,5.73,18.81,5.53,28.18-.34,17.94-11.23,37.15-18.74,58.7-16.28,42.24,4.82,70.33,35.37,73,78.64C423.59,336.19,423.41,339.59,423.41,343Z"/><path d="M368.45,671.55c-7.53,0-15.06.05-22.59,0-6.75-.06-11.2-4.09-11.18-10,0-5.5,4.47-9.88,10.84-10,13.55-.18,27.11-.05,40.66-.08,7.95,0,9.75-1.39,10.54-9.16,2.16-21.16,11.87-37.72,29.47-49.71,10.42-7.09,20.64-14.48,31.09-21.53a49.18,49.18,0,0,0,19.82-25.9c11.46-34.13,17-69.35,19.88-105.08.62-7.61-3.57-13.13-10.13-13.88-6.72-.76-11.48,3.65-12.56,11.47-1.84,13.41-3.77,26.81-5.65,40.22-2,14.61-10.55,25.08-21.79,33.67a9.83,9.83,0,0,1-13.32-1.44,10,10,0,0,1-.1-13.4,39.74,39.74,0,0,1,4.65-4.1c6-5.05,9.77-11.24,10.77-19.17,1.67-13.25,3.74-26.45,5.4-39.71,2.07-16.6,16.33-28.58,33.45-27.82a31.12,31.12,0,0,1,29.45,30.75c0,15.07-2,30-4.3,44.91-3.85,24.95-9.22,49.53-17.77,73.36-4.9,13.62-13.52,24.14-25.41,32.22-10.58,7.19-20.93,14.72-31.56,21.85-12.92,8.66-20,20.62-21.25,36.07-.66,8.27-3.8,15.3-10.31,20.59a24.12,24.12,0,0,1-16.08,5.86C383.14,671.44,375.79,671.55,368.45,671.55Z"/><path d="M185.87,671.55c-6.78,0-13.56,0-20.34,0-14.54,0-24.85-8.21-27.33-22.57-2.36-13.59-7.68-25.54-17.3-35.43-5.94-6.1-13.31-10.44-20.19-15.37-5.66-4-11.44-7.94-17.24-11.8-13.85-9.23-21.79-22.56-26.65-38.07A436.54,436.54,0,0,1,37.29,440.85c-1-18.56,11.1-33.43,28.07-34.81,18.44-1.51,32.82,10.85,35.1,29.87,1.48,12.33,3.41,24.61,4.92,36.93A29.19,29.19,0,0,0,116.66,493a33,33,0,0,1,3.82,3.35,10.52,10.52,0,0,1,.39,13.91,10,10,0,0,1-13.36,1.32c-11.26-8.33-19.58-18.68-21.6-33.1q-2.82-20.12-5.69-40.23c-1.15-8.18-6.1-12.78-12.83-11.92-6.41.83-10.27,5.47-9.87,12.82a422.67,422.67,0,0,0,8.28,63.19,345.34,345.34,0,0,0,12.07,44.64,45.68,45.68,0,0,0,17.46,23q13.69,9.48,27.37,19c18.61,13,30.46,30.39,34.49,52.91,1.51,8.45,3.08,9.72,11.51,9.73,13.37,0,26.73,0,40.1,0,5,0,8.66,2.49,10.35,7.26,1.51,4.25-.07,7.75-3.3,10.6a9.6,9.6,0,0,1-6.82,2.14C201.31,671.51,193.59,671.54,185.87,671.55Z"/><path d="M241.16,630.49c0-7.72-.17-15.44,0-23.15.36-13.61-4.08-25.32-12.61-35.9-16.19-20.09-34.2-38.05-56.66-51.14-7.21-4.2-14.41-3.34-18.83,2.23-4.74,6-4,13,2.17,19.16a126.74,126.74,0,0,0,10.18,9.77c11.67,9.32,18.2,21.28,19.54,36.15.32,3.55,1.16,7.07,1.34,10.63a10.32,10.32,0,0,1-9.05,11.07c-5,.56-9.79-3-10.92-8.59-1-5-1.67-10-2.3-15.06a22.8,22.8,0,0,0-7.13-14.33q-8.06-7.51-16-15.18c-12.83-12.45-14.85-30.92-4.93-44.62,10.49-14.48,28.5-18.46,44.66-9.61a174.62,174.62,0,0,1,31.2,22.24,271.09,271.09,0,0,1,32.84,34.9c10.84,13.58,16.74,29,17,46.28.27,18.06.13,36.14,0,54.21,0,7-3.34,11.31-8.74,11.93-6.9.8-11.67-3.46-11.82-11.07-.19-10,0-19.95,0-29.92Z"/><path d="M293,630.29c0-10.92-.7-21.89.17-32.73,1.25-15.47,8.37-28.68,18.06-40.66,16-19.74,34.06-37.12,55.45-51,11.41-7.39,23.18-11.7,36.7-6.17a33.56,33.56,0,0,1,11.17,55.09c-5.17,5.22-10.4,10.37-15.87,15.26a24.7,24.7,0,0,0-8.55,16.61c-.46,4.49-1.08,9-2,13.4-1.26,6.23-6.27,10-11.6,9.15-5.81-1-9.37-6.14-8.47-12.57.83-6,1.6-11.94,2.8-17.83a39.12,39.12,0,0,1,11-20.63c5.65-5.52,11.5-10.84,17.1-16.42,6.4-6.37,7.08-13,2.24-19.13-4.48-5.72-11.42-6.72-18.74-2.43-24.77,14.53-44.7,34.28-61.3,57.51-6,8.41-8.13,18.13-8.18,28.31-.1,17.69,0,35.39-.06,53.08,0,8.08-3.41,12.24-9.89,12.37-6.81.13-10.37-4.06-10.41-12.43,0-9.6,0-19.2,0-28.8Z"/><path d="M358.72,371.68a10.37,10.37,0,0,1-10,10.28,10.21,10.21,0,0,1-9.95-10.2,10,10,0,0,1,9.87-10.2A10.15,10.15,0,0,1,358.72,371.68Z"/><path d="M664.3,499.55l-39.52-4.23v52.56H589.5V414.17h35.28v46l39.34,4.06-.35-49.57,35.28-.7.88,135.3-35.28-.18Z"/><path d="M774.48,548.06l-.18-8.29a36.79,36.79,0,0,1-11.82,6.53A43.6,43.6,0,0,1,748,548.77a38.68,38.68,0,0,1-21.53-6.44A46.37,46.37,0,0,1,710.79,525,50.24,50.24,0,0,1,705,501a49.45,49.45,0,0,1,6-24.17,44.7,44.7,0,0,1,39.69-23.46,36.46,36.46,0,0,1,13,2.3,24.84,24.84,0,0,1,9.79,6.35v-7.59H802.7l4.06,93.67Zm-11.65-31.22a20.1,20.1,0,0,0,6.71-7.5,21.09,21.09,0,0,0,2.47-10,16.72,16.72,0,0,0-4.68-12.08,15.64,15.64,0,0,0-11.73-4.85A19.18,19.18,0,0,0,742,487.91a17.3,17.3,0,0,0-5.82,13,17.78,17.78,0,0,0,2.55,9,20.26,20.26,0,0,0,6.71,7.05,15.16,15.16,0,0,0,17.37-.17Z"/><path d="M898.66,461.18q7.59,8.73,7.23,24.61l-1.06,62.27H872.55l.18-41.45q0-12.89-3.44-18.35a11.24,11.24,0,0,0-10.14-5.47,14.62,14.62,0,0,0-9.44,3.18q-4,3.16-4.85,10.76l.17,51.33H813.11V454l31.57-.53v9a62.69,62.69,0,0,1,15.7-7.24A58.81,58.81,0,0,1,878,452.45Q891.07,452.45,898.66,461.18Z"/><path d="M1013.25,408.7V548.41h-34.4v-9.88a42.9,42.9,0,0,1-13.76,7.77,49.17,49.17,0,0,1-16.76,3,32.11,32.11,0,0,1-19.4-6.62,45.87,45.87,0,0,1-14.29-17.9,56.62,56.62,0,0,1-5.29-24.35,51.7,51.7,0,0,1,5.47-23.11,51.17,51.17,0,0,1,14.37-18.08q8.91-7,18.61-7.14,18.53-.53,30.52,8.47L978,405.88ZM968.62,516.57a21.47,21.47,0,0,0,7.14-7.23,17.33,17.33,0,0,0-3-22.23,18.59,18.59,0,0,0-13.32-5.55,17.57,17.57,0,0,0-12.79,5.55,18.08,18.08,0,0,0-3,22.32,20.45,20.45,0,0,0,6.88,7.14,16.4,16.4,0,0,0,8.91,2.74A17.11,17.11,0,0,0,968.62,516.57Z"/><path d="M1086.42,486.5a83.43,83.43,0,0,0-14.11-6.44,38,38,0,0,0-11.82-2,20.83,20.83,0,0,0-8.73,1.59c-2.3,1.06-3.44,2.41-3.44,4.05q0,4.41,12.34,4.41,18,0,28,7.06t10.06,19.58a29,29,0,0,1-5.91,17.55A41.47,41.47,0,0,1,1077,545.06a49.79,49.79,0,0,1-21.78,4.76A58.26,58.26,0,0,1,1033,545.5,42.8,42.8,0,0,1,1016.21,534L1034,513.84a30.77,30.77,0,0,0,9.7,5.73,31.53,31.53,0,0,0,11.11,2,21,21,0,0,0,9.26-1.85q3.8-1.86,3.8-4.5c0-1.41-.83-2.41-2.47-3s-4.41-.88-8.29-.88a20.69,20.69,0,0,1-3.18.18,36.51,36.51,0,0,1-16.67-4,34,34,0,0,1-12.61-10.68,24.06,24.06,0,0,1,.7-29.63A39.36,39.36,0,0,1,1040,455.89a45,45,0,0,1,19.4-4.32,55.73,55.73,0,0,1,20.55,4.06,65.59,65.59,0,0,1,18.79,11.29Z"/><path d="M1175.15,541.89a50.27,50.27,0,0,1-18.08-18.44,48.73,48.73,0,0,1-6.62-24.61q0-14.46,7.5-25a48.67,48.67,0,0,1,18.87-16.06,52.76,52.76,0,0,1,23-5.47q15.18,0,26.46,5.74a41.49,41.49,0,0,1,17.47,16.31q6.17,10.59,6.17,24.7a50,50,0,0,1-6.53,25.31,47.57,47.57,0,0,1-17.9,17.91,49.64,49.64,0,0,1-25.14,6.53A48.15,48.15,0,0,1,1175.15,541.89ZM1213.69,514q4.85-4.75,4.85-13.05a20.22,20.22,0,0,0-4.58-13.41q-4.59-5.46-13.59-5.46a17.65,17.65,0,0,0-13.14,5.29,17.89,17.89,0,0,0-5.2,13.05,17.34,17.34,0,0,0,5.47,13.14,19.38,19.38,0,0,0,13.93,5.21A16.78,16.78,0,0,0,1213.69,514Z"/><path d="M1306.21,441.6c-1.59,2.89-2.56,6.91-2.91,12.09l27.17.35-1.94,31.75-24-.35,2.64,62.27H1271l-.71-62.8-18.17-.18L1248.79,453l21.17.35-.18-12.17q-.71-17.82,10-26.64t28.49-8.82a53.08,53.08,0,0,1,17,2.65,36.06,36.06,0,0,1,13.32,7.76l-1.23,25.05q-.54-.35-5.65-3.26a25,25,0,0,0-12.52-2.91,19.52,19.52,0,0,0-6.18.88A11.62,11.62,0,0,0,1306.21,441.6Z"/><path d="M1465.06,499.55l-39.52-4.23v52.56h-35.28V414.17h35.28v46l39.34,4.06-.35-49.57,35.28-.7.88,135.3-35.28-.18Z"/><path d="M1530.43,541.89a50.35,50.35,0,0,1-18.08-18.44,48.72,48.72,0,0,1-6.61-24.61q0-14.46,7.49-25a48.7,48.7,0,0,1,18.88-16.06,52.73,52.73,0,0,1,23-5.47q15.16,0,26.46,5.74a41.52,41.52,0,0,1,17.46,16.31q6.18,10.59,6.18,24.7a50,50,0,0,1-6.53,25.31,47.53,47.53,0,0,1-17.91,17.91,49.6,49.6,0,0,1-25.13,6.53A48.18,48.18,0,0,1,1530.43,541.89ZM1569,514q4.85-4.75,4.85-13.05a20.17,20.17,0,0,0-4.59-13.41q-4.59-5.46-13.58-5.46a17.63,17.63,0,0,0-13.14,5.29,17.9,17.9,0,0,0-5.21,13.05,17.34,17.34,0,0,0,5.47,13.14,19.39,19.39,0,0,0,13.94,5.21A16.78,16.78,0,0,0,1569,514Z"/><path d="M1695.47,465.24q9.71,12.43,9.7,31.66a61.06,61.06,0,0,1-5,25,43.19,43.19,0,0,1-14.2,18,35.57,35.57,0,0,1-21.35,6.61q-13,0-21.7-4.76l1.59,48.51h-34.93V453.86l28.76.18,1.23,9.35A51,51,0,0,1,1654,455.1a39.73,39.73,0,0,1,15.17-3Q1685.77,452.8,1695.47,465.24Zm-23,47.89q4.32-4.58,4.32-12.52,0-8.3-4.76-13.32t-12.53-5a17.6,17.6,0,0,0-12.61,4.77,15.82,15.82,0,0,0-5,12,17.66,17.66,0,0,0,5.74,13.14,18.73,18.73,0,0,0,13.49,5.56A14.91,14.91,0,0,0,1672.45,513.13Z"/><path d="M1788.4,466.21q12.16,12.89,12.17,35.1c0,2.47-.06,4.36-.18,5.65l-62.44.7a25.78,25.78,0,0,0,5.91,9.62,13.51,13.51,0,0,0,8.91,4.14q14.1,1.07,20.46-8.29l25.22,7.24a34,34,0,0,1-8.82,14.9A46,46,0,0,1,1774,545.59a49.32,49.32,0,0,1-18.78,3.71,27.91,27.91,0,0,1-3.53-.18,44.92,44.92,0,0,1-22.49-7.94,51,51,0,0,1-16.41-18.52,52.55,52.55,0,0,1-6.09-25,34.48,34.48,0,0,1,.18-4.06,39.59,39.59,0,0,1,7.15-20.81A43.55,43.55,0,0,1,1731,458.45a52.25,52.25,0,0,1,23.2-5.12Q1776.23,453.33,1788.4,466.21Zm-50.28,19.93,29.82.18a11.94,11.94,0,0,0-4.15-7.94,13.8,13.8,0,0,0-7.85-3.17Q1742.89,474.15,1738.12,486.14Z"/><path d="M656.6,670.1l-2.22-47.6L644.2,670.1H623l-11.77-44.52-.53,43.35-21.2.11V588.69l15.27.95,16.21.53,11.88,42.62,8-43.25h33.18l3.71,79.82Z"/><path d="M754.35,652.18l-26.93-.1-6.78,16.85-21.2-8.69,34.77-70.92,21.2.22,24.91,75.26-21.2,5.09ZM748.62,631l-5.09-19.08-7.63,19Z"/><path d="M852.28,648.9v21.2H802.46V589.32h21.2V648.9Z"/><path d="M929.06,652.18l-26.92-.1-6.79,16.85-21.2-8.69,34.77-70.92,21.2.22L955,664.8l-21.2,5.09ZM923.34,631l-5.09-19.08-7.63,19Z"/><path d="M1089.79,598.76l-27.66,72.82h-25.66L1028,632l-8.58,37.42H992.8l-22.47-73.14L994,588.9l12.72,45.58,12.4-43.67h19.5l10.07,47.28,16.43-51.2Z"/><path d="M1112,589.32h20.56l-.63,80.57h-20.57Z"/></g></g></svg>