<svg xmlns="http://www.w3.org/2000/svg" viewBox="0 0 925.23 925.23"><defs><style>.cls-1{fill:none;}</style></defs><g id="Layer_2" data-name="Layer 2"><g id="Layer_1-2" data-name="Layer 1"><rect class="cls-1" width="925.23" height="925.23"/><path d="M596,246.64c-.31,28.38-10.83,53.22-27.17,75.85-18.81,26.05-43,46.26-70,63.28a145.09,145.09,0,0,1-17.09,9.81c-13.41,6.12-27.19,6.79-40.08-.09-39.39-21-73.19-48.57-96.43-87.42-6.87-11.5-6.12-23.59,1.48-34.8,7.87-11.59,19.52-14.84,32.71-13.71,10.2.87,18.8,5.58,26.37,12.27,6.59,5.82,14.43,8.68,23,10.05,12,1.91,22.52-1.79,32.5-7.94,9.4-5.79,19.26-10.17,30.62-10.05,6.67.07,10.89,3.44,11,9,.13,5.27-3.91,9.36-10.1,9.6-8,.32-15.08,3-21.81,7.34-25.49,16.28-53.17,14.88-77.19-3.87-6.18-4.83-12.56-8.45-20.79-7.76-11.43,1-17,11.48-11.18,21.36,12.7,21.47,30,38.8,49.4,54.1a315.6,315.6,0,0,0,33,22.45c11.78,7.07,23.42,6.89,35.25-.29,25-15.17,48.28-32.38,67.09-55,15.51-18.68,26.87-39.4,30.36-63.82a80.29,80.29,0,0,0-3.58-37.9c-10.29-29.84-44-43.76-74.17-30.79A135.6,135.6,0,0,0,484,196.15c-15,8.86-30.17,8.94-45.17-.16-7.58-4.6-15.37-8.77-24-10.82-32.94-7.78-61.91,11.41-67.76,44.76-.33,1.88-.53,3.78-.95,5.63-1.24,5.5-5.33,8.5-10.5,7.79a9.2,9.2,0,0,1-7.89-10.46c2.82-24.13,13.09-44,34.31-57,27.77-17,55.35-13.79,82.56,1.73,1.5.86,3,1.75,4.46,2.65,8.7,5.27,17.28,5.08,25.9-.31,16.49-10.32,34.15-17.22,54-15,38.82,4.43,64.65,32.51,67.12,72.27C596.16,240.4,596,243.53,596,246.64Z"/><path d="M545.48,548.64c-6.92,0-13.84,0-20.76,0-6.21,0-10.3-3.75-10.28-9.16,0-5.06,4.11-9.08,10-9.16,12.45-.17,24.91,0,37.37-.07,7.31,0,9-1.28,9.68-8.43,2-19.45,10.91-34.67,27.09-45.68,9.58-6.53,19-13.31,28.58-19.8a45.13,45.13,0,0,0,18.21-23.8c10.53-31.37,15.62-63.74,18.28-96.58.56-7-3.29-12.07-9.32-12.76s-10.55,3.36-11.54,10.54c-1.69,12.33-3.47,24.65-5.19,37-1.88,13.43-9.7,23.05-20,30.95a9,9,0,0,1-12.24-1.33,9.17,9.17,0,0,1-.1-12.32,37.52,37.52,0,0,1,4.27-3.76c5.5-4.64,9-10.33,9.91-17.62,1.54-12.18,3.44-24.31,5-36.5,1.9-15.25,15-26.27,30.74-25.57a28.6,28.6,0,0,1,27.07,28.26c0,13.85-1.84,27.59-3.95,41.28-3.54,22.94-8.47,45.53-16.34,67.43-4.49,12.51-12.42,22.18-23.35,29.61-9.72,6.61-19.24,13.53-29,20.08-11.88,8-18.4,18.95-19.54,33.15-.61,7.61-3.49,14.07-9.47,18.93a22.21,22.21,0,0,1-14.78,5.39C559,548.54,552.23,548.64,545.48,548.64Z"/><path d="M377.66,548.64c-6.23,0-12.46,0-18.69,0-13.36,0-22.84-7.54-25.12-20.74-2.17-12.49-7.05-23.48-15.9-32.57-5.46-5.61-12.23-9.6-18.56-14.12-5.2-3.73-10.51-7.31-15.84-10.86-12.73-8.48-20-20.73-24.5-35a401.34,401.34,0,0,1-18-98.77c-.92-17.06,10.21-30.72,25.81-32,16.94-1.38,30.16,10,32.25,27.46,1.36,11.33,3.14,22.62,4.53,33.94a26.8,26.8,0,0,0,10.37,18.48,32.13,32.13,0,0,1,3.5,3.08,9.66,9.66,0,0,1,.36,12.79,9.16,9.16,0,0,1-12.27,1.21c-10.35-7.65-18-17.17-19.86-30.42q-2.6-18.5-5.23-37c-1.06-7.51-5.6-11.75-11.79-11-5.9.76-9.44,5-9.07,11.78a387.33,387.33,0,0,0,7.61,58.08,317,317,0,0,0,11.09,41,42,42,0,0,0,16.05,21.09q12.58,8.73,25.15,17.47c17.11,11.94,28,27.93,31.71,48.63,1.39,7.76,2.83,8.93,10.57,8.94,12.29,0,24.58,0,36.86,0,4.63,0,8,2.28,9.52,6.67,1.39,3.91-.07,7.12-3,9.74a8.82,8.82,0,0,1-6.28,2C391.85,548.6,384.76,548.63,377.66,548.64Z"/><path d="M428.48,510.9c0-7.1-.15-14.19,0-21.28.33-12.51-3.75-23.26-11.59-33-14.88-18.47-31.43-35-52.08-47-6.62-3.86-13.24-3.06-17.31,2.06-4.35,5.49-3.65,11.94,2,17.6a116.35,116.35,0,0,0,9.35,9c10.74,8.57,16.73,19.56,18,33.23.3,3.27,1.07,6.5,1.24,9.77a9.49,9.49,0,0,1-8.32,10.17c-4.57.52-9-2.78-10-7.89-.93-4.57-1.54-9.21-2.12-13.84a20.89,20.89,0,0,0-6.56-13.17q-7.4-6.91-14.66-13.95c-11.79-11.45-13.64-28.42-4.52-41,9.64-13.32,26.19-17,41.05-8.84a160.11,160.11,0,0,1,28.67,20.44,249.68,249.68,0,0,1,30.19,32.08c10,12.48,15.38,26.61,15.62,42.53.25,16.61.12,33.22,0,49.83,0,6.45-3.07,10.4-8,11-6.34.73-10.72-3.19-10.86-10.18-.18-9.16,0-18.33,0-27.5Z"/><path d="M476.16,510.71c0-10-.65-20.11.16-30.07,1.14-14.22,7.69-26.37,16.59-37.37,14.69-18.15,31.31-34.13,51-46.86,10.49-6.8,21.31-10.76,33.73-5.67a30.85,30.85,0,0,1,10.27,50.63c-4.75,4.79-9.56,9.53-14.59,14a22.72,22.72,0,0,0-7.86,15.26A124.38,124.38,0,0,1,563.62,483c-1.16,5.72-5.76,9.21-10.66,8.4-5.33-.87-8.61-5.64-7.78-11.55.76-5.48,1.47-11,2.57-16.39a36,36,0,0,1,10.12-18.95c5.19-5.08,10.57-10,15.72-15.09,5.88-5.86,6.5-11.93,2.06-17.59-4.12-5.25-10.5-6.18-17.23-2.23-22.77,13.36-41.08,31.51-56.34,52.86-5.52,7.73-7.47,16.66-7.52,26-.09,16.26,0,32.52-.05,48.79,0,7.42-3.14,11.24-9.09,11.36-6.27.12-9.53-3.73-9.57-11.42,0-8.83,0-17.65,0-26.47Z"/><path d="M536.53,273a9.52,9.52,0,0,1-9.14,9.44,9.37,9.37,0,0,1-9.14-9.37,9.16,9.16,0,0,1,9.06-9.38A9.32,9.32,0,0,1,536.53,273Z"/><path d="M100.87,685l-26.93-2.89v35.83h-24V626.75h24v31.38l26.81,2.77-.24-33.79,24-.48.6,92.22-24-.12Z"/><path d="M176,718l-.12-5.65a25.21,25.21,0,0,1-8.06,4.45,29.7,29.7,0,0,1-9.86,1.68,26.31,26.31,0,0,1-14.67-4.39,31.49,31.49,0,0,1-10.7-11.84,34.31,34.31,0,0,1-4-16.35,33.75,33.75,0,0,1,4.09-16.47,30.41,30.41,0,0,1,27-16,24.88,24.88,0,0,1,8.84,1.57,16.77,16.77,0,0,1,6.67,4.33v-5.17h20L198,718ZM168,696.73a13.76,13.76,0,0,0,4.57-5.11,14.34,14.34,0,0,0,1.68-6.79,11.41,11.41,0,0,0-3.18-8.24,10.67,10.67,0,0,0-8-3.31,13.13,13.13,0,0,0-9.26,3.73,11.82,11.82,0,0,0-4,8.9,12.11,12.11,0,0,0,1.75,6.13,13.79,13.79,0,0,0,4.57,4.81,10.35,10.35,0,0,0,11.84-.12Z"/><path d="M260.61,658.79q5.16,6,4.93,16.78L264.82,718h-22l.12-28.25q0-8.78-2.34-12.51a7.66,7.66,0,0,0-6.91-3.73,10,10,0,0,0-6.44,2.17c-1.8,1.44-2.9,3.89-3.3,7.33l.12,35H202.29V653.93l21.53-.37v6.14a42.1,42.1,0,0,1,10.7-4.93,40.1,40.1,0,0,1,12-1.93Q255.44,652.84,260.61,658.79Z"/><path d="M338.71,623v95.22H315.27v-6.73a29.45,29.45,0,0,1-9.38,5.29,33.46,33.46,0,0,1-11.43,2,21.85,21.85,0,0,1-13.22-4.51,31.13,31.13,0,0,1-9.74-12.2,38.67,38.67,0,0,1-3.61-16.59,36.67,36.67,0,0,1,13.53-28.08,21,21,0,0,1,12.68-4.87q12.63-.36,20.8,5.77l-.24-37.27Zm-30.42,73.52a14.72,14.72,0,0,0,4.87-4.93,11.83,11.83,0,0,0-2-15.15,12.65,12.65,0,0,0-9.08-3.79,12,12,0,0,0-8.72,3.79,12.34,12.34,0,0,0-2,15.21,13.93,13.93,0,0,0,4.69,4.87,11.2,11.2,0,0,0,6.07,1.86A11.71,11.71,0,0,0,308.29,696.55Z"/><path d="M388.58,676.05a56.68,56.68,0,0,0-9.62-4.39,25.8,25.8,0,0,0-8-1.38,14.22,14.22,0,0,0-6,1.08c-1.57.72-2.35,1.64-2.35,2.76q0,3,8.42,3,12.25,0,19.12,4.81A15.43,15.43,0,0,1,397,695.29a19.73,19.73,0,0,1-4,12A28.32,28.32,0,0,1,382.15,716a34.05,34.05,0,0,1-14.85,3.24,39.77,39.77,0,0,1-15.15-2.94,29.15,29.15,0,0,1-11.42-7.88l12.14-13.71a21,21,0,0,0,6.62,3.91,21.61,21.61,0,0,0,7.57,1.39,14.31,14.31,0,0,0,6.31-1.27c1.73-.84,2.59-1.86,2.59-3.06a2.13,2.13,0,0,0-1.68-2,18.74,18.74,0,0,0-5.66-.6,14.27,14.27,0,0,1-2.16.12,24.84,24.84,0,0,1-11.36-2.7,23.2,23.2,0,0,1-8.6-7.28,16.38,16.38,0,0,1,.48-20.2,26.83,26.83,0,0,1,10-7.75,30.59,30.59,0,0,1,13.23-3,37.89,37.89,0,0,1,14,2.77A45,45,0,0,1,397,662.7Z"/><path d="M449.06,713.8a34.3,34.3,0,0,1-12.33-12.56,33.27,33.27,0,0,1-4.5-16.77,28.75,28.75,0,0,1,5.11-17.08,33.15,33.15,0,0,1,12.86-10.94,36,36,0,0,1,15.69-3.73,39.44,39.44,0,0,1,18,3.91,28.36,28.36,0,0,1,11.9,11.12A32.86,32.86,0,0,1,500,684.59a34.1,34.1,0,0,1-4.45,17.25,32.41,32.41,0,0,1-12.2,12.2,33.81,33.81,0,0,1-17.14,4.45A32.75,32.75,0,0,1,449.06,713.8Zm26.27-19q3.3-3.24,3.31-8.89a13.77,13.77,0,0,0-3.13-9.14q-3.13-3.72-9.26-3.73a12,12,0,0,0-9,3.61,12.2,12.2,0,0,0-3.54,8.9,11.81,11.81,0,0,0,3.73,9,13.18,13.18,0,0,0,9.49,3.55A11.43,11.43,0,0,0,475.33,694.8Z"/><path d="M538.39,645.45a20.17,20.17,0,0,0-2,8.24l18.51.24-1.32,21.64-16.35-.24,1.8,42.44H514.4l-.48-42.8-12.38-.12-2.29-21.65,14.43.24-.12-8.29q-.48-12.15,6.8-18.16t19.41-6a36.22,36.22,0,0,1,11.61,1.8,24.6,24.6,0,0,1,9.07,5.3l-.84,17.07q-.36-.24-3.85-2.23a17,17,0,0,0-8.53-2,13.32,13.32,0,0,0-4.21.6A7.91,7.91,0,0,0,538.39,645.45Z"/><path d="M646.66,685l-26.93-2.89v35.83H595.68V626.75h24.05v31.38l26.81,2.77-.24-33.79,24.05-.48.6,92.22-24.05-.12Z"/><path d="M691.22,713.8a34.3,34.3,0,0,1-12.33-12.56,33.28,33.28,0,0,1-4.51-16.77,28.82,28.82,0,0,1,5.11-17.08,33.25,33.25,0,0,1,12.87-10.94,36,36,0,0,1,15.69-3.73,39.47,39.47,0,0,1,18,3.91A28.36,28.36,0,0,1,738,667.75a32.86,32.86,0,0,1,4.21,16.84,34.1,34.1,0,0,1-4.45,17.25A32.43,32.43,0,0,1,725.54,714a33.77,33.77,0,0,1-17.13,4.45A32.75,32.75,0,0,1,691.22,713.8Zm26.27-19q3.3-3.24,3.3-8.89a13.77,13.77,0,0,0-3.12-9.14q-3.13-3.72-9.26-3.73a12,12,0,0,0-9,3.61,12.2,12.2,0,0,0-3.54,8.9,11.84,11.84,0,0,0,3.72,9,13.21,13.21,0,0,0,9.5,3.55A11.43,11.43,0,0,0,717.49,694.8Z"/><path d="M803.71,661.56q6.6,8.48,6.61,21.58a41.54,41.54,0,0,1-3.43,17,29.34,29.34,0,0,1-9.68,12.26,24.24,24.24,0,0,1-14.54,4.51q-8.91,0-14.79-3.25L769,746.75H745.15V653.81l19.6.12.84,6.37a34.66,34.66,0,0,1,9.86-5.65,27.09,27.09,0,0,1,10.34-2Q797.09,653.08,803.71,661.56ZM788,694.2c2-2.08,2.94-4.93,2.94-8.53a12.63,12.63,0,0,0-3.25-9.08,11.22,11.22,0,0,0-8.53-3.43,12,12,0,0,0-8.6,3.25,10.8,10.8,0,0,0-3.43,8.18,12.07,12.07,0,0,0,3.91,8.95,12.77,12.77,0,0,0,9.2,3.79A10.16,10.16,0,0,0,788,694.2Z"/><path d="M867,662.22q8.31,8.78,8.3,23.93c0,1.68,0,3-.12,3.85l-42.56.48a17.52,17.52,0,0,0,4,6.55,9.2,9.2,0,0,0,6.07,2.82q9.62.74,13.94-5.65l17.2,4.93a23.09,23.09,0,0,1-6,10.16,31.58,31.58,0,0,1-10.64,7,33.69,33.69,0,0,1-12.81,2.52,18.14,18.14,0,0,1-2.4-.12,30.62,30.62,0,0,1-15.33-5.41,34.75,34.75,0,0,1-11.19-12.62,35.91,35.91,0,0,1-4.14-17.08,23.87,23.87,0,0,1,.12-2.76,27,27,0,0,1,4.87-14.19,29.73,29.73,0,0,1,11.54-9.74,35.67,35.67,0,0,1,15.81-3.49Q858.75,653.44,867,662.22Zm-34.26,13.59,20.32.12a8.08,8.08,0,0,0-2.83-5.41,9.53,9.53,0,0,0-5.35-2.17Q836,667.63,832.78,675.81Z"/><path d="M323.34,838.3l-1.51-32.43-6.94,32.43H300.45l-8-30.33-.37,29.53-14.44.08V782.84l10.4.65,11.05.36,8.09,29,5.49-29.46h22.6l2.53,54.37Z"/><path d="M389.93,826.09,371.59,826,367,837.5l-14.44-5.92,23.68-48.31,14.44.15,17,51.27-14.44,3.46ZM386,811.65l-3.46-13-5.2,12.93Z"/><path d="M456.65,823.85V838.3H422.71v-55h14.44v40.58Z"/><path d="M509,826.09,490.61,826,486,837.5l-14.44-5.92,23.68-48.31,14.45.15,17,51.27-14.45,3.46Zm-3.9-14.44-3.46-13-5.2,12.93Z"/><path d="M618.45,789.7,599.6,839.31H582.13l-5.78-26.94-5.85,25.49H552.38L537.07,788l16.1-5.06,8.67,31,8.45-29.75h13.28l6.86,32.21,11.2-34.88Z"/><path d="M633.59,783.27h14l-.44,54.88h-14Z"/></g></g></svg>